CoelacanthDisplayHairline.sfdir
StartChar: dollar
Encoding: 36 36 287
Width: 463
UnlinkRmOvrlpSave: 1
Flags: HW
LayerCount: 2
Fore
SplineSet
385 374 m 1
 362.692382812 340.166992188 349.461914062 316 327 287 c 1
 316 297 l 1
 353.333333333 343.4 360 358.991518624 360 369 c 3
 360 377.275206368 311.167212702 403 259 403 c 3
 187.432814577 403 122 369.148421491 122 322 c 3
 122 272.366648707 192.608582473 247.521738311 249 222 c 0
 330.010590456 185.336068134 388 151.556063566 388 96 c 3
 388 36.7600446429 314.084360881 -8 230 -8 c 3
 158.830078125 -8 95.2880859375 34.1015625 68 83 c 1
 85.9228515625 105.013671875 111.349609375 129.633789062 132 155 c 1
 143 146 l 1
 104 102 90 85.9046610169 90 82 c 3
 90 59.9305245536 157.067023026 6 230 6 c 3
 317.779464286 6 374 50.3523137019 374 96 c 3
 374 135.605945122 334.524834941 169.503884849 246 208 c 0
 178.239526496 237.466476751 108 262.324497768 108 321 c 3
 108 376.494087837 178.644407634 417 258 417 c 3
 312.67578125 417 358.897460938 393.739257812 385 374 c 1
EndSplineSet
Refer: 778 58113 N 0.0181668 0.693762 -0.968418 0.0253589 236.417 -147.881 2
Substitution2: "case-1" dollar.alt
Substitution2: "lnum-1" dollar.alt
EndChar
StartChar: quotesingle
Encoding: 39 39 692
Width: 201
Flags: HW
LayerCount: 2
Fore
SplineSet
92 699.700195312 m 1
 106 699.700195312 l 1
 106 630.734195312 106 557.034226071 106 445.700195312 c 1
 92 445.700195312 l 1
 92 556.91122607 92 630.890195312 92 699.700195312 c 1
EndSplineSet
Position2: "Extra space for context kern-1" dx=35 dy=0 dh=70 dv=0
Position2: "cpsp-1" dx=0 dy=0 dh=7 dv=14
EndChar
StartChar: five
Encoding: 53 53 363
Width: 355
Flags: HW
LayerCount: 2
Fore
SplineSet
84 394 m 1
 152 396 242 396 258 398 c 0
 284 402 292 420 312 440 c 9
 312 440 319 436 324 434 c 1
 297 395 273 384 247 383 c 0
 216 382 160 381 98 380 c 1
 98 380 90 259 82 212 c 1
 168 222 292 176 292 48 c 3
 292 -96 137 -206 32 -215 c 9
 32 -215 32 -206 30 -200 c 1
 120 -197 278 -89 278 48 c 3
 278 144 194 212 66 197 c 1
 72 247 80 306 84 394 c 1
EndSplineSet
Substitution2: "dnom-1" five.denom
Substitution2: "numr-1" five.numerator
Substitution2: "tnum-1" five.tabulartext
Substitution2: "lnum-1" five.proportionallining
EndChar
StartChar: C
Encoding: 67 67 2382
Width: 666
Flags: HW
AnchorPoint: "Bottom" 397 -15 basechar 0
AnchorPoint: "Top" 389 708 basechar 0
LayerCount: 2
Fore
SplineSet
23 344 m 3
 23 664 285 727 417 727 c 3
 510.503030303 727 560.78027378 699.674885925 620 675 c 0
 632 670 626 674 643 691 c 1
 649 686 l 1
 635 655 623.258631161 610.138098574 620 558 c 0
 619 542 611 552 607 555 c 1
 607.3125 622.009765625 628.894823417 653.552588292 616 660 c 0
 606 665 530 713 417 713 c 3
 245.264808362 713 37 622.002057604 37 344 c 3
 37 134.058823529 213.091796875 2 397 2 c 3
 634.008438668 2 611 103 632 157 c 1
 646 154 l 1
 637 115 619 67 608 21 c 1
 538 5 473 -12 397 -12 c 3
 190 -12 23 140 23 344 c 3
EndSplineSet
Position2: "cpsp-1" dx=0 dy=0 dh=50 dv=100
Substitution2: "c2pc-1" c.pcap
Substitution2: "c2sc-1" c.smcp
EndChar
StartChar: D
Encoding: 68 68 2394
Width: 797
Flags: HW
AnchorPoint: "Bottom" 352 -15 basechar 0
AnchorPoint: "Top" 361 690 basechar 0
LayerCount: 2
Fore
SplineSet
375 8 m 3
 550.011299074 8 760 114 760 353 c 3
 760 582.26443769 574.258358663 699 351 699 c 3
 245.514285714 699 189.650592908 692.706336098 143 692 c 0
 133.077045287 691.849756655 132.987582155 684.716622709 133 669 c 0
 133.061413286 591.27239095 131.517578125 385.116873892 131.517578125 228.477539062 c 3
 131.517578125 138.847534863 131.713313224 63.7301834064 132 30 c 0
 132.119371848 15.9552840525 136.780728973 13.9289948699 146 14 c 0
 235.888888889 14.6923076923 284.354166667 8 375 8 c 3
39 708 m 1
 57 706 81 706 134 706 c 3
 167 706 283 713 351 713 c 3
 579 713 774 592 774 353 c 3
 774 87 532 -6 376 -6 c 3
 286 -6 245 0 172 0 c 3
 130 0 65 -2 31 -4 c 1
 31 10 l 1
 118 17 117.956728042 4.55833955823 118 30 c 0
 118.04686476 57.5540406936 118.188205221 285.297560503 118.188205221 453.956004373 c 3
 118.188205221 549.613796947 119.314829435 634.051096965 120 677 c 0
 120.365590887 699.916523807 116 687.388888889 38 694 c 1
 39 708 l 1
EndSplineSet
Position2: "cpsp-1" dx=0 dy=0 dh=50 dv=100
Substitution2: "c2pc-1" d.pcap
Substitution2: "c2sc-1" d.smcp
EndChar
StartChar: E
Encoding: 69 69 2400
Width: 639
Flags: HW
AnchorPoint: "Bottom" 309 -15 basechar 0
AnchorPoint: "Top" 330 682 basechar 0
AnchorPoint: "Ogonek" 560 1 basechar 0
LayerCount: 2
Fore
SplineSet
41 704 m 1
 90.1353814912 703.622035527 170.699334411 703.244071054 254.290528359 703.244071054 c 3
 391.860845392 703.244071054 537.630436812 704.267786838 565 708 c 1
 569.578958482 705.710520759 571.483572476 704.276831754 571.483572476 698.48575829 c 3
 571.483572476 686.570834021 563.421041518 656.210415185 554 562 c 1
 540 563 l 1
 549 660.444444444 562.500511907 694.810932518 549 693 c 0
 530.844827208 690.564700287 430.920673916 689.605937109 291.000008073 689.605937109 c 3
 246.005700964 689.605937109 196.876300593 689.258061884 145 689 c 0
 139.901043576 688.974634924 135 687.099019514 135 682 c 0
 135 617.243902439 135 439.43902439 135 367 c 1
 201.666666667 367 447.307501443 367 491 367 c 0
 499.587130774 367 503 424.847222222 505 452 c 1
 519 451 l 1
 515.86335345 425.906827602 514.366465497 385.23594854 514.366465497 344.703133529 c 3
 514.366465497 307.701905028 515.613872125 270.815729903 518 246 c 1
 504 245 l 1
 499.69047619 303.153846154 500.746799743 353 491 353 c 0
 374.589353612 353 233.813688213 353 135 353 c 1
 134 263.719178082 134 89.904192141 134 23 c 0
 134 16.9172374697 136.876909982 12.0113447981 141 12 c 0
 166.705752476 11.9292698991 252.858208019 14.115234375 350.762695312 14.115234375 c 3
 425.09952026 14.115234375 552.272011175 8.14940488506 557 16 c 0
 576.76119403 48.8125 592.104477612 101.9375 611 166 c 1
 625 161 l 1
 614 125 579 19 568 -6 c 1
 558.559693491 -2.8532311637 436.619913909 0.0184778362423 309.508826681 0.0184778362423 c 3
 194.254947482 0.0184778362423 74.74954451 -2.34246061804 31 -9 c 1
 29 5 l 1
 71.3835616438 10.9069767442 119.791117718 10.3571088875 120 33 c 0
 120.828026467 122.758274311 121.189453125 249.60820761 121.189453125 376.1171875 c 3
 121.189453125 481.891781653 122.226580637 590.606647808 121 674 c 0
 120.830922883 685.495296044 89.2352941176 688.518518519 41 690 c 1
 41 704 l 1
EndSplineSet
Position2: "cpsp-1" dx=0 dy=0 dh=50 dv=100
Substitution2: "c2pc-1" e.pcap
Substitution2: "c2sc-1" e.smcp
EndChar
StartChar: Q
Encoding: 81 81 2496
Width: 825
Flags: HW
AnchorPoint: "Bottom" 393 -15 basechar 0
LayerCount: 2
Fore
SplineSet
417 701 m 3
 222 701 55 535.010637997 55 347 c 3
 55 230 151.991596787 2 407 2 c 3
 618.009008826 2 771 163.988166095 771 346 c 3
 771 549.977900552 603 701 417 701 c 3
476 -5 m 1
 553 -68.0303030303 688 -135 778 -135 c 3
 820.75 -135 857.392857143 -128.571428571 892 -120 c 1
 895 -134 l 1
 863.296774194 -140.956521739 826.309677419 -150 778 -150 c 3
 697.771604938 -150 543.185185185 -83.875862069 461 -9 c 1
 111.92 -41 41 266.676880223 41 347 c 3
 41 551 223 715 417 715 c 3
 598 715 785 570 785 346 c 3
 785 180.394658754 663.505976096 26.0356083086 476 -5 c 1
EndSplineSet
Position2: "cpsp-1" dx=0 dy=0 dh=50 dv=100
Substitution2: "salt-1" Q.alt
Substitution2: "c2pc-1" q.pcap
Substitution2: "c2sc-1" q.smcp
EndChar
StartChar: U
Encoding: 85 85 2520
Width: 827
Flags: HW
AnchorPoint: "Bottom" 422 -15 basechar 0
AnchorPoint: "Top" 415 671 basechar 0
AnchorPoint: "Ogonek" 502 -2 basechar 0
LayerCount: 2
Fore
SplineSet
25 707 m 1
 59.4213277102 702.813622306 100.117309591 701.223653233 142.357679757 701.223653233 c 3
 182.532206137 701.223653233 224.395668358 703.325765386 262 706 c 1
 263 692 l 1
 162.285714286 685 136 694.797142142 136 669 c 0
 136 539.905263158 137 396.727985475 137 231 c 3
 137 165.173228346 149.687596857 124.394732938 184 79 c 0
 219.575609756 31.9340659341 291.804878049 -2 405 -2 c 3
 524.83255814 -2 601.168048904 41.8829470228 633 89 c 0
 658.02063937 125.030049098 671.954085583 167.304306012 680 255 c 0
 690.530592538 369.7772115 693 509.451775962 693 672 c 3
 693 691.019158632 655.444444444 684 577 692 c 1
 578 705 l 1
 594.666666667 702.333333333 662.888888889 700.111111111 720.148148148 700.111111111 c 3
 748.777777778 700.111111111 774.666666667 700.666666667 790 702 c 1
 789 688 l 1
 732.835616438 686.446808511 707 686.553808711 707 671 c 3
 707 439.000632307 702.116042998 356.035368109 693 256 c 0
 685.113108892 169.452793561 675.540463658 127.953364674 643 79 c 0
 605.93442623 23.2391304348 514.245901639 -16 405 -16 c 3
 289.097959184 -16 221.101455773 14.5200582337 176 67 c 0
 149.481562071 97.8567884206 123 141.651841234 123 232 c 3
 123 407.903283733 121 609.54909658 121 670 c 3
 121 693.565447751 110.700093721 685.25561029 23 693 c 1
 25 707 l 1
EndSplineSet
Position2: "cpsp-1" dx=0 dy=0 dh=50 dv=100
Substitution2: "c2pc-1" u.pcap
Substitution2: "c2sc-1" u.smcp
EndChar
StartChar: e
Encoding: 101 101 293
Width: 414
Flags: HMW
AnchorPoint: "Bottom" 210 -15 basechar 0
AnchorPoint: "Top" 212 425.3 basechar 0
AnchorPoint: "Ogonek" 301.65 23 basechar 0
LayerCount: 2
Fore
SplineSet
217 388 m 3
 148.776936422 388 66 324.807692308 52 229 c 1
 351 289 l 2
 358.200861271 290.445070799 359.358806756 294.008854281 355 302 c 0
 330.097744361 347.047619048 281.660601806 388 217 388 c 3
217 402 m 3
 285.307692308 402 337.502316554 361.923068577 365 313 c 0
 370 304 373 296 389 291 c 1
 388 281 l 1
 276.177083333 260.719298246 158.46875 236.859649123 49 213 c 1
 48 205.1875 48 195.8125 48 188 c 3
 48 90.3011363637 103.812080537 7 202 7 c 3
 266.959349594 7 329.154471544 40 372 70 c 1
 379 60 l 1
 335.779069767 27 268.889534884 -7 202 -7 c 3
 97 -7 34 80.34375 34 188 c 3
 34 331.004739336 143 402 217 402 c 3
EndSplineSet
Substitution2: "case-1" E
Substitution2: "pcap-1" e.pcap
Substitution2: "smcp-1" e.smcp
EndChar
StartChar: l
Encoding: 108 108 497
Width: 241
Flags: HMW
AnchorPoint: "Bottom" 122 -15 basechar 0
AnchorPoint: "Top" 108 734 basechar 0
AnchorPoint: "TopRight" 234 531 basechar 0
LayerCount: 2
Fore
SplineSet
125 274 m 3
 125 188.907376219 125.024115033 105.196287523 125 25 c 0
 124.99789642 18.0043936848 129.182075586 13.9985121804 132 14 c 0
 164.82130335 14.0173291304 213.395885659 11.4324100741 237 11 c 1
 237 -3 l 1
 209.329896907 -3 153.989690722 0 115 0 c 3
 79.962962963 0 39.2222222222 -0.666666666667 5 -2 c 1
 2 11 l 1
 15.2808815446 13.1333318502 86.3916888665 13.718082916 104 14 c 0
 109.063405492 14.0810674289 111 18.8666005928 111 25 c 0
 111 133.754237288 111 302.190677966 111 338 c 3
 111 538.111778128 110.759765625 654.264443847 111 714 c 0
 111.101837262 720.160164858 110.538461538 724 108 724 c 3
 102.201673272 724 56.0056444903 681.552206588 20 670 c 1
 17 683 l 1
 53.3636363636 700 89.7272727273 727 117 753 c 1
 125 747 l 1
 125 730 125 711.033296378 125 696 c 0
 125 630 125 414 125 274 c 3
EndSplineSet
Substitution2: "case-1" L
Substitution2: "pcap-1" l.pcap
Substitution2: "smcp-1" l.smcp
EndChar
StartChar: n
Encoding: 110 110 536
Width: 485
Flags: HMW
AnchorPoint: "Bottom" 247 -15 basechar 0
AnchorPoint: "Top" 247 491 basechar 0
LayerCount: 2
Fore
SplineSet
88 380 m 0
 87.976359881 382.883991225 87.2059534893 386 85 386 c 3
 73.6869215197 386 32.2685942986 350.624449164 6 350 c 1
 6 361 l 1
 33.781512605 373 68.1428571429 394 93 411 c 1
 102 406 l 1
 102 312 l 1
 157.713483146 351.985507246 243.061797753 401 313 401 c 3
 382 401 415.811776106 359.988323063 420 294 c 0
 424 230.977272727 425 170.090909091 425 106 c 3
 425 78.4137931034 425 53.5862068966 425 26 c 0
 425 19.1636363636 430.206024505 14.2782767741 434 14 c 0
 452.749915976 12.6247496488 479.548842774 11.7927053988 485 10 c 1
 484 -3 l 1
 457.296703297 -0.777777777777 421.692307692 1 394 1 c 3
 362.704761905 1 319.295238095 -1.72727272727 288 -5 c 1
 286 7 l 1
 292.774540137 10.9117525269 355.358510698 15.034328883 400 15 c 0
 410.999996748 14.9915411065 411 18.731469198 411 23 c 0
 411 76.6666666667 410 127.159226827 410 184 c 3
 410 269.693877551 409 326 386 356 c 0
 369.610607275 377.377468771 344.567567568 387 313 387 c 3
 241.992958096 387 169.894308943 341.828571429 102 294 c 1
 102 206.096 102 113.904 102 26 c 0
 102 19.1555555555 108.060606061 15 112 15 c 0
 148.136629352 15 206 10 206 10 c 1
 205 -4 l 1
 175 -1.22222222222 138 1 105 1 c 3
 73 1 37 -1 5 -2 c 1
 2 10 l 1
 13 13 68 15 83 15 c 0
 86.8903493822 15 88 20.7738888137 88 27 c 0
 88 81.4660194181 88 137.515085827 88 192 c 3
 88 259.656734397 88.4345703125 326.984320717 88 380 c 0
EndSplineSet
Substitution2: "case-1" N
Substitution2: "pcap-1" n.pcap
Substitution2: "smcp-1" n.smcp
EndChar
StartChar: r
Encoding: 114 114 693
Width: 351
Flags: HMW
AnchorPoint: "Bottom" 142 -15 basechar 0
AnchorPoint: "Top" 150.5 466 basechar 0
LayerCount: 2
Fore
SplineSet
140 199 m 0
 140 141.27388535 137.046875 85.0459252015 140 28 c 0
 140.55 17.375 143.304024029 11 151 11 c 0
 185.844444444 11 224.422222222 11 263 12 c 1
 264 -2 l 1
 214 -3 161.009433123 -5 108 -5 c 0
 81 -5 54 -6 28 -6 c 1
 28 6 l 1
 117 9 l 2
 123.081467968 9.39554263206 126 17.8578643763 126 32 c 0
 126 82.9731543624 126 131.865771812 126 187 c 3
 126 250.342227562 126.766517847 315.777755763 127 377 c 0
 127.04379888 388.484671126 124.771428571 393 121 393 c 0
 110.538461538 393 40.4615384615 336 19 336 c 1
 17 346 l 1
 42.7952755906 361 108.204724409 401 134 422 c 1
 140 422 141.057015853 417.960379223 141 413 c 2
 140 326 l 1
 174.302158273 345.301204819 282.568345324 413.927710843 289 415 c 1
 328 381.62745098 338 365.666666667 338 341 c 0
 338 335.729166667 331.473684211 331.145833333 326 330 c 1
 328 361.115288221 305 395 288 395 c 3
 277.21978022 395 140 312.393949637 140 301 c 3
 140 267.361702128 140 232.638297872 140 199 c 0
EndSplineSet
Substitution2: "case-1" R
Substitution2: "pcap-1" r.pcap
Substitution2: "smcp-1" r.smcp
EndChar
StartChar: s
Encoding: 115 115 709
Width: 341
Flags: HMW
AnchorPoint: "Bottom" 166 -15 basechar 0
AnchorPoint: "Top" 180.5 440 basechar 0
LayerCount: 2
Fore
SplineSet
39 108 m 1
 61.2116788321 19.4375 72.9625058575 2 148 2 c 3
 220.45 2 286 37.234375 286 85 c 3
 286 141.16 219.125617973 179.836367363 169 202 c 0
 124.707188638 221.584588464 59 238.853211009 59 305 c 3
 59 359.214285714 134.692307692 397 203 397 c 3
 229 397 252 394 274 390 c 1
 288 306 l 1
 278 304 l 1
 260 378 270 383 203 383 c 3
 131 383 73 343.475409836 73 305 c 3
 73 250.328358209 127.248013971 235.219015134 174 215 c 0
 236.192307692 188.103448276 300 148.827586207 300 85 c 3
 300 22.0350877193 218.43902439 -12 148 -12 c 3
 109 -12 78 -3 48 9 c 1
 48 16.8536585366 50.3894214853 24.5197001801 48 32 c 0
 39.4 58.9230769231 31 81.8076923077 27 102 c 1
 39 108 l 1
EndSplineSet
Substitution2: "case-1" S
Substitution2: "pcap-1" s.pcap
Substitution2: "smcp-1" s.smcp
EndChar
StartChar: u
Encoding: 117 117 811
Width: 512
Flags: HMW
AnchorPoint: "Bottom" 253 -15 basechar 0
AnchorPoint: "Top" 264 437 basechar 0
AnchorPoint: "Horn" 434.5 333 basechar 0
AnchorPoint: "Ogonek" 391.65 -3 basechar 0
LayerCount: 2
Fore
SplineSet
297 378 m 1
 337.432835821 385 384.447761194 396 423 407 c 1
 428 402 l 1
 424 317 415 227 415 141 c 3
 415 96.7450980392 415 69 419 19 c 0
 419.563883874 11.9514515696 423.891934773 6.19166633277 432 10 c 2
 498 41 l 1
 502 26 l 1
 466.166666667 13 423.590380088 -12 416 -12 c 3
 415.057190958 -12 413.53671428 -11.7450735905 412 -11 c 0
 403.75 -7 401.916666667 75.1470588235 401 90 c 1
 323.710526316 31 254.236842105 -4 203 -4 c 3
 152.333333333 -4 125.193314052 18.4622326038 108 55 c 0
 95.76530646 81.0001292002 91 111 91 144 c 3
 91 299.861172816 103 369.889229724 103 388 c 3
 103 388 102.470588235 390 100 390 c 3
 98 390 32.8 347 15 347 c 1
 12 359 l 1
 40.0412371134 370 79.7209302326 393 108 413 c 1
 119 408 l 1
 107.615384615 291.40201005 105 231.557788945 105 144 c 3
 105 32.9954955869 159.740692943 10 203 10 c 3
 266.400684652 10 356.231397459 71.4776119403 401 106 c 1
 400 223 413 365.768554688 413 382 c 0
 413 394 370 376 296 363 c 1
 297 378 l 1
EndSplineSet
Substitution2: "case-1" U
Substitution2: "pcap-1" u.pcap
Substitution2: "smcp-1" u.smcp
EndChar
StartChar: x
Encoding: 120 120 2310
Width: 421
Flags: HW
AnchorPoint: "Bottom" 202 -15 basechar 0
AnchorPoint: "Top" 200 434 basechar 0
LayerCount: 2
Fore
SplineSet
7 11 m 1
 43.4651162791 13.875 44.5580153719 12.3007530983 56 26 c 2
 203 202 l 1
 176.461538462 251.511450381 138.511287134 305.141472982 113 343 c 0
 92.2820466979 373.745261528 92.064516129 378.393048128 15 378 c 1
 14 392 l 1
 30 392 51 392 67 392 c 0
 110 392 155 394 197 394 c 1
 197 380 l 1
 126.566666667 378.384615385 114 379.384615385 114 372 c 0
 114 366.090909091 115.741603419 363.640000913 119 359 c 0
 149.172413793 316.034073641 180.586206897 265.65371128 213 212 c 1
 330 353 l 2
 334.69883592 358.662699698 341 364.707317073 341 373 c 0
 341 380.692307692 325 377 258 381 c 1
 258 395 l 1
 279 394 306 392 327 392 c 0
 354 392 387 394 413 396 c 1
 413 383 l 1
 376.78125 380.363636364 366.379094013 376.083925826 359 367 c 0
 312.155963303 309.333333333 270.549204673 257.024390244 221 200 c 1
 255.285714286 142.715116279 291.698296242 81.4259347168 326 33 c 0
 343 9 350.933333333 15.6206896552 411 12 c 1
 410 -2 l 1
 380 -0.6 344 0 312 0 c 0
 286 0 255 -2 229 -3 c 1
 227 11 l 1
 301.975609756 15.0606060606 313 13 313 21 c 0
 313 23 312.180988284 25.101246021 311 27 c 0
 275.173913043 84.6 242.304347826 138.6 212 189 c 1
 168.761904762 140.978582356 125.667574837 88.7119939817 88 43 c 0
 82.6424407559 36.4982616486 74 29 74 19 c 0
 74 11.7307692308 77.0833333333 16.5274725274 151 10 c 1
 152 -3 l 1
 132 -2 105 0 85 0 c 0
 60 0 31 -1 8 -3 c 1
 7 11 l 1
EndSplineSet
Substitution2: "case-1" X
Substitution2: "pcap-1" x.pcap
Substitution2: "smcp-1" x.smcp
EndChar
StartChar: sterling
Encoding: 163 163 757
Width: 509
UnlinkRmOvrlpSave: 1
Flags: HW
LayerCount: 2
Fore
SplineSet
18 393 m 1
 163.847619047 394.297986738 326.007142857 392.824609547 421 410 c 1
 427 361 l 1
 358.50245002 359.290648354 254.216981132 356.449858789 20 356 c 1
 18 393 l 1
139 324 m 3
 139 400.356589147 139 445 141 521 c 0
 142.873557692 586.092747245 162.012834206 626.81937643 211 674 c 0
 258.487654321 725.298701299 300.786397065 753 368 753 c 3
 419.098699568 753 443.166666667 728.043478261 491 712 c 1
 463.5 684.4 448.5 667.6 421 640 c 1
 407.982142857 666.014693878 390.142857143 702 340 702 c 3
 308.446765999 702 286.415183595 700.896495496 265 681 c 0
 222.052631579 636.805084746 219.126606556 594.912110626 217 532 c 0
 214.202174809 461.055146951 216 419.337739419 216 347 c 3
 216 184.710607155 189.109174907 145.299651568 112 59 c 1
 205.390756302 53.5 259.287028676 48 351 48 c 3
 402.971145841 48 435 97.1428571429 463 128 c 1
 471.25 122 476.75 118 485 112 c 1
 445.909090909 61 416.090909091 31 385 -20 c 1
 338.257255504 -20.0027801705 137.473988439 12 34 -20.0029296875 c 1
 18 0 l 1
 128.436507937 105.389574672 139 185.098808938 139 324 c 3
EndSplineSet
EndChar
StartChar: eth
Encoding: 240 240 346
Width: 471
UnlinkRmOvrlpSave: 1
Flags: HW
LayerCount: 2
Fore
SplineSet
373 240 m 1
 366.085365854 304 296.944701242 371 211 371 c 3
 144.123076923 371 85 327.004882812 85 238 c 3
 85 131.886348515 144.717724609 37 247 37 c 3
 335.834446958 37 373 120.617793216 373 194 c 3
 373 425.426736637 230.950166113 630.048192771 74 716 c 1
 75.0837517488 718.745947016 77.2373046875 727.453125 77.2373046875 727.453125 c 1
 258.237172007 675.166289781 431 439.719447105 431 235 c 3
 431 113.962890625 328.998490768 -5 193 -5 c 3
 109.911132812 -5 28 80.923828125 28 171 c 3
 28 326.389648438 171.610169492 405 257 405 c 3
 301.295507545 405 339.874114323 389.328900641 368 370 c 1
 373 240 l 1
EndSplineSet
Refer: 778 58113 N 0.284488 0.177084 -0.547233 0.872389 104.756 489.958 2
Substitution2: "pcap-1" eth.pcap
Substitution2: "case-1" Eth
Substitution2: "smcp-1" eth.smcp
EndChar
StartChar: iogonek
Encoding: 303 303 468
Width: 254
UnlinkRmOvrlpSave: 1
Flags: HW
LayerCount: 2
Fore
SplineSet
172.98 4.88477 m 1
 116.399 -51.3906 110.1 -122.841 110.1 -147.391 c 3
 110.1 -168.986 124.929 -194.396 148.419 -194.396 c 3
 164.361 -194.396 189.505 -186.447 209.147 -169.116 c 9
 216.947 -176.517 l 1
 193.752 -220.975 155.005 -239.523 125.024 -239.523 c 3
 97.8896 -239.523 56.8916 -230.321 56.8916 -177.226 c 3
 56.8916 -117.968 106.436 -35.9863 163.281 15.1035 c 1
 172.98 4.88477 l 1
EndSplineSet
Refer: 435 105 N 1 0 0 1 0 0 2
Substitution2: "smcp-1" iogonek.smcp
Substitution2: "case-1" Iogonek
Substitution2: "pcap-1" iogonek.pcap
EndChar
StartChar: dotlessi
Encoding: 305 305 291
Width: 264
Flags: HMW
AnchorPoint: "Top" 132 429 basechar 0
LayerCount: 2
Fore
SplineSet
150 208 m 3
 150 144.962962963 150.020950872 91.9578678262 150 23 c 0
 149.997325382 14.1967415378 151.941176471 15 161 15 c 0
 181 15 221 15 241 15 c 1
 242 1 l 1
 235 1 215 1 208 1 c 0
 146 1 90 -1 30 -6 c 1
 28 -4.25 28 0.125 30 8 c 1
 127 14 l 0
 133.6 14.4736842105 136 15.2733837751 136 23 c 0
 136 80.5673376131 136 128.78807947 136 186 c 3
 136 252.616391021 136.150858311 317.663421404 136 384 c 0
 135.989753727 388.505570109 135.25 393 133 393 c 3
 126.827160494 393 79.9135802469 350.0625 33 333 c 1
 30 347 l 1
 70.1307692308 364 113.676923077 396 141 424 c 1
 151 419 l 1
 150.75 402 150 382.714001111 150 363 c 0
 150 312.675324675 150 257.681818182 150 208 c 3
EndSplineSet
Substitution2: "case-1" I
Substitution2: "pcap-1" i.pcap
Substitution2: "smcp-1" i.smcp
EndChar
StartChar: Eng
Encoding: 330 330 2410
Width: 836
Flags: HW
LayerCount: 2
Fore
SplineSet
628 -189 m 0
 589 -216 552 -241 493 -241 c 3
 461 -241 411 -230 386 -208 c 1
 387.224489796 -178.046875 386 -178.046875 446 -137 c 1
 485 -155 508.349151158 -179 554 -179 c 3
 640.616503398 -179 676.265625 -76.9678502479 676.265625 -13.4755859375 c 3
 676.265625 48.2626834417 640.03404243 103.097021502 604 139.090820312 c 0
 459.896 279.614068929 313.026 416.065410818 161 550 c 1
 152 154 l 2
 149.672574689 52.4216563039 186 44.674796748 277 35 c 1
 269 -11 l 1
 229.225006617 -2.55029543162 191.72886241 0.193359375 156.584960938 0.193359375 c 0
 107.789937357 0.193359375 63.5294692282 -6.59829339283 24 -10 c 1
 19 34 l 1
 77 34 94.2505340003 45.0370931165 97 93 c 0
 106 246.782786885 108.836453881 409.412965035 105 571 c 0
 104 614 69 649 12 648 c 1
 14 692 l 1
 53 688 104.987806691 684 146 684 c 0
 161 684 162.224003945 680.217054625 169 673 c 0
 318.792 516.927864326 473.300161891 367.004316767 636 223.227539062 c 0
 659.155 202.310678333 682.86 176.9488472 699 154 c 1
 708 281.98180798 710.135155394 409.964631854 709 545 c 0
 708 667 656 656 597 663 c 1
 602 701 l 1
 658.737273127 693.806776525 706.285370634 691.3984375 751.0625 691.3984375 c 0
 778.931628397 691.3984375 805.747514379 692.483615703 833 694 c 1
 837 655 l 1
 788 649 766.708243919 651.026764413 763 609 c 0
 748 442.189493433 745 264.596148366 745 86 c 0
 745 63 747 43 747 0 c 3
 747 -86.94 692.388915009 -144.42305884 628 -189 c 0
EndSplineSet
Position2: "cpsp-1" dx=0 dy=0 dh=50 dv=100
Substitution2: "c2pc-1" eng.pcap
Substitution2: "c2sc-1" eng.smcp
EndChar
StartChar: uni018F
Encoding: 399 399 858
Width: 677
Flags: HW
AnchorPoint: "Top" 343 695 basechar 0
AnchorPoint: "Bottom" 328 -15 basechar 0
LayerCount: 2
Fore
SplineSet
343 44.75 m 3
 473.076470588 44.75 534.114705882 157.372881356 547.75 278.25 c 1
 415.398106353 253.269238068 285.181111171 226.148189916 151.5 202.5 c 1
 171.872340426 128.49382716 257.436170213 44.75 343 44.75 c 3
326.5 -24.5 m 3
 225 -24.5 118.872242445 54.5066181322 83.25 140 c 0
 74.5 161 48.25 175 29 176.75 c 1
 29 218.75 l 1
 551.25 318.5 l 1
 551.25 331.526315789 553 346.723684211 553 359.75 c 3
 553 563.525 424.453488372 645.75 279.25 645.75 c 3
 193.289473684 645.75 121.960526316 605.783333334 70.75 564 c 1
 43 595.25 l 1
 116.5 652.029411765 221.5 712.25 342.25 712.25 c 3
 529.5 712.25 636.25 570.057894737 636.25 386.75 c 3
 636.25 80.5 386 -24.5 326.5 -24.5 c 3
EndSplineSet
Position2: "cpsp-1" dx=0 dy=0 dh=50 dv=100
EndChar
StartChar: uni0196
Encoding: 406 406 865
Width: 326
Flags: HW
LayerCount: 2
Fore
SplineSet
116.599609375 539 m 0
 115 565 105.637695312 597 82.400390625 597 c 3
 70.6728515625 597 48 588 30.2001953125 586.25 c 1
 22 622 l 1
 68.0712890625 631.827148438 116.142578125 647.166015625 176.400390625 695 c 1
 199.15234375 689.430664062 199.329101562 668.951171875 202 637 c 0
 203.436523438 619.815429688 204.200195312 609.422851562 204.200195312 592.5 c 0
 204.200195312 518.0078125 197.456054688 417.247070312 197.456054688 287.506835938 c 3
 197.456054688 230.994140625 196.682617188 168.198242188 200 99 c 0
 201.931640625 58.7138671875 226.203125 38 249 38 c 3
 267.307617188 38 290.223632812 55.2900390625 305.508789062 62.3857421875 c 1
 320 32 l 1
 263.69140625 0.3720703125 228.991210938 -32 192.883789062 -32 c 3
 129.415039062 -32 113.473632812 15.7177734375 113.473632812 77.9169921875 c 3
 113.473632812 161.350585938 123.151367188 240.983398438 123.151367188 333.733398438 c 3
 123.151367188 397.54296875 121.129882812 465.366210938 116.599609375 539 c 0
EndSplineSet
EndChar
StartChar: uni019E
Encoding: 414 414 870
Width: 526
Flags: HW
AnchorPoint: "Top" 272 465 basechar 0
LayerCount: 2
Fore
SplineSet
515 -214 m 1
 510 -248 l 1
 471 -239 450 -237 408 -237 c 3
 378 -237 335 -242 309 -248 c 1
 305 -215 l 1
 343.064095077 -208.079255441 371.21600591 -212.92819944 373 -165 c 0
 375 -111.268656716 379 9.62686567164 379 60 c 3
 379 138.03125 377.588535002 255.239646208 374 287 c 0
 369 328.328358209 348 358 293 358 c 3
 245 358 203 344.4 170 324 c 1
 168 234.329113924 161 109.430379747 161 71 c 3
 161 27.80589946 195.795590225 30.6204409775 232 27 c 1
 228 -7 l 1
 189 -1 159 4 117 4 c 3
 87 4 51 -1 21 -5 c 1
 18 28 l 1
 55.449092135 34.8089258427 78.318284601 37.5524032329 87 76 c 0
 94 107 95 167 95 199 c 3
 95 219 92.9313485795 287.976104104 86 308 c 0
 77 334 72 336 54 336 c 3
 44 336 41 335 32 335 c 1
 30 364 l 1
 67 371 104 375 154 416 c 1
 175 401 l 1
 170 387.056338028 167 366.915492958 167 346 c 1
 215 377 267 415 330 415 c 3
 403 415 448 375 448 304 c 3
 448 239.885714285 446 169.942857143 446 100 c 3
 446 -26.8139534884 443.994358813 -149.457691099 449 -187 c 0
 452.785023974 -215.387679806 488.573254621 -208.714650924 515 -214 c 1
EndSplineSet
Substitution2: "smcp-1" uni019E.smcp
EndChar
StartChar: uni01A3
Encoding: 419 419 874
Width: 557
UnlinkRmOvrlpSave: 1
Flags: HW
LayerCount: 2
Fore
SplineSet
235 371 m 3
 167.323216976 371 107.180664062 316.00363021 107.180664062 223.540039062 c 3
 107.180664062 120.253709448 177.826434932 25 264 25 c 3
 285.938476562 25 303.07421875 29.879138054 313.247070312 35.3681640625 c 1
 318.65945983 44.4950968477 322.010742188 153.28668175 322.010742188 208.404296875 c 3
 322.010742188 258.648419938 316.073522705 337.487393612 303.110351562 357.356445312 c 1
 283.62478018 365.458363748 262.337025657 371 235 371 c 3
258.436523438 416 m 3
 304.15422771 416 345.928497353 402.477677165 378.170898438 380.124023438 c 1
 376.158203125 322.656255568 369.18359375 265.188476562 369.18359375 207.721679688 c 3
 369.18359375 145.791015625 376.610351562 83.8593696575 379.357421875 21.9287109375 c 1
 345.639043415 -0.5986328125 301.514031234 -14.1611328125 251.623046875 -14.1611328125 c 3
 129.625165664 -14.1611328125 31 68.995869006 31 192.034179688 c 3
 31 333.604324776 148.380414706 416 258.436523438 416 c 3
500 175 m 3
 500 89.859375 501.19140625 -22.3154296875 509 -103 c 0
 511 -118 531.338867188 -120.6328125 542 -124 c 0
 548.333007812 -126 555.458007812 -126.5 561 -127 c 1
 557 -161 l 1
 531.416015625 -156.63671875 493.551757812 -153 466 -153 c 3
 436 -153 400 -160 370 -164 c 1
 367 -131 l 1
 378 -130 394.181640625 -128.822265625 405 -126 c 0
 428 -120 429.774414062 -109.044921875 431 -81 c 0
 433 -14 434 85.32 434 155 c 3
 434 182.36 435.388027072 239.791566855 430 326 c 0
 429 342 424 355 407 355 c 3
 400.6 355 384.6 351 375 350 c 1
 370 382 l 1
 416.873239437 386.540540541 459.225585938 391.837890625 507 410 c 1
 527 394 l 1
 521 380 516.477539062 352.90234375 514 342 c 0
 504 298 500 192 500 175 c 3
EndSplineSet
Substitution2: "pcap-1" gha.pcap
Substitution2: "smcp-1" gha.smcp
EndChar
StartChar: uni01B4
Encoding: 436 436 879
Width: 540
Flags: HW
LayerCount: 2
Fore
SplineSet
348.607721582 244.000003017 m 0
 317.480216416 177.891097822 270.643813919 81.1219999326 223 -12 c 0
 179 -98 113 -281 113 -346 c 1
 109 -346 90 -343 52 -343 c 3
 22 -343 15 -345 -6 -346 c 1
 -6 -346 -5 -330 -7 -319 c 1
 85 -283 73 -255 176 -32 c 1
 148 100.845703125 84.3007692526 310.427472496 58 348 c 0
 51 358 47.9141031266 367.57464375 37 370 c 0
 28 372 16 375 6 376 c 1
 10 406 l 1
 33 402 68 400 91 400 c 3
 125 400 153 401 185 407 c 1
 189 379 l 1
 156 370 l 0
 149 369 145 368 145 359 c 3
 145 358 147.182637941 351.033082481 148 346 c 0
 160 272.107421875 192 153.462890625 226 65 c 1
 253.787010354 108.25843066 277.318015944 161.613683748 301.833476298 212.999996349 c 0
 340 293 365.956234083 419 468.797851562 419 c 3
 513.394001396 419 540 389.1786974 540 355.576171875 c 3
 540 317.727644957 518.04296875 299.151367188 494.890625 299.151367188 c 3
 477.447265625 299.151367188 459.326171875 306.061106972 449.40234375 319.6875 c 1
 455.037981899 328.571965144 460 333.211388221 460 350 c 3
 460 358.212890625 451.46067245 364.697265625 441.439453125 364.697265625 c 3
 400.623221682 364.697265625 372.050906445 293.788872291 348.607721582 244.000003017 c 0
EndSplineSet
EndChar
StartChar: uni01F6
Encoding: 502 502 962
Width: 1078
Flags: HW
LayerCount: 2
Fore
SplineSet
674.02734375 198.342773438 m 3
 674.02734375 112.025733634 695.946445643 19 780 19 c 3
 884.172105614 19 916 83.9926474563 916 152 c 3
 916 222.85717266 915 285.835820896 915 335 c 3
 915 378.19410054 880.204409775 375.379559022 844 379 c 1
 848 413 l 1
 887 407 917 402 959 402 c 3
 989 402 1025 407 1055 411 c 1
 1058 378 l 1
 1021.87933082 371.432605604 994.804248313 368.689289932 989 330 c 0
 982 283.340206186 981 256.263099674 981 184 c 3
 981 45.6150442478 836.579844967 -41 749 -41 c 3
 639.146377859 -41 594 50.7808469408 594 166 c 3
 594 166 595 205.201642336 596 326 c 1
 185 326 l 1
 184 237.358398438 182.16566652 134.018002642 186 65 c 0
 188 29 240 33 272 26 c 1
 272 26 268 3 267 -11 c 1
 215.392393862 -2.39873231031 170.431590595 2.44564680006 127.612272285 2.44564680006 c 0
 90.7794837565 2.44564680006 55.5312407821 -1.1388469203 19 -9 c 1
 19 -9 14 15 12 33 c 1
 48 39 87.3366943002 39.0339950291 89 65 c 0
 96.2525285306 178.21983199 101.316868541 344.932732317 101.316868541 468.148915494 c 0
 101.316868541 548.805656344 99.1468237866 610.824268099 94 627 c 0
 87 649 55 649 17 654 c 1
 20 692 l 1
 70.0298483717 685.600833348 114.306484551 681.909060669 162.673695598 681.909060669 c 0
 197.448454503 681.909060669 234.337727139 683.817424229 277 688 c 1
 279 651 l 1
 252 647 200.484398292 646.927416559 198 632 c 0
 192 595.94921875 188 469.282226562 186 366 c 1
 596 366 l 1
 596 433.891601562 593.688305698 511.532689182 591 611 c 0
 590 648 551 646 510 658 c 1
 515 692 l 1
 556.052737713 685.86568287 589.312311919 681.957983886 622.76385661 681.957983886 c 0
 660.203671429 681.957983886 697.883961003 686.853022614 747 699 c 1
 753 662 l 1
 704 650 692.806142836 652.01317276 691 624 c 0
 683.799122875 512.314804924 674.02734375 329.207531575 674.02734375 198.342773438 c 3
EndSplineSet
Substitution2: "c2pc-1" uni0195.pcap
Substitution2: "c2sc-1" uni0195.smcp
EndChar
StartChar: uni0222
Encoding: 546 546 1035
Width: 618
UnlinkRmOvrlpSave: 1
Flags: HW
LayerCount: 2
Fore
SplineSet
277.771484375 638.404296875 m 1
 235.119879898 638.404296875 187.428710938 603.439453125 187.428710938 574.482421875 c 3
 187.428710938 512.909125401 257.898317505 488.193975903 330.124023438 476 c 0
 466.392566375 452.993574415 582 350.3513408 582 236.216796875 c 3
 582 90.0195062727 463.311284637 -7 305.713867188 -7 c 3
 165.943405299 -7 36 69.6120896794 36 214.11328125 c 3
 36 327.845336025 147.808024001 415.172337543 252 442.397460938 c 1
 268.490529486 454.685289361 284.790280065 462.67979361 300.42578125 466 c 1
 376.986328125 471.92578125 424.314453125 527.274414062 424.314453125 579.088867188 c 3
 424.314453125 622.260742188 389.177734375 698.984375 305 708.33203125 c 1
 313 744.655273438 l 1
 405.9296875 741.612304688 510 700.469726562 510 599.005859375 c 3
 510 535.309293143 453.689357805 476.415440988 374 451.709960938 c 1
 356.446693614 438.538253115 337.759061186 429.38154818 318.2890625 425 c 1
 225.536897997 415.849316145 131.057617188 336.867624746 131.057617188 250.57421875 c 3
 131.057617188 145.05332019 209.504529467 37.341796875 324.314453125 37.341796875 c 3
 467.452548649 37.341796875 483.942382812 158.228697372 483.942382812 210.11328125 c 3
 483.942382812 300.968382551 413.240062197 380.711171147 298.077148438 403.515625 c 0
 187.436945495 425.424495832 96.0576171875 476.221331764 96.0576171875 548.581054688 c 3
 96.0576171875 617.477539062 196.366418717 674 272.713867188 674 c 1
 277.771484375 638.404296875 l 1
EndSplineSet
Substitution2: "c2pc-1" uni0223.pcap
Substitution2: "c2sc-1" uni0223.smcp
EndChar
StartChar: uni0251
Encoding: 593 593 1079
Width: 498
Flags: HW
LayerCount: 2
Fore
SplineSet
343 84 m 1
 345 169.736170213 348 218.195744681 348 303 c 3
 348 309 343.813776741 324.844582472 338 332 c 0
 317.473684211 358.046511628 280.368421053 367 248 367 c 3
 163.131386861 367 97 283.4 97 191 c 3
 97 117.408839779 146.558441558 43 241 43 c 3
 304 43 333 71.9411764706 343 84 c 1
421 32 m 0
 424.682539696 18.3457368785 434.038476052 21.7252788721 435 22 c 0
 449 26 476 34 488 38 c 1
 497 11 l 1
 444 -9 381 -32 367 -32 c 3
 360 -32 349.65732448 -30.1184630346 349 -15 c 0
 348 8 348 49 348 53 c 1
 309.958333333 29.4 251.166666667 -6 182 -6 c 3
 91.7567567568 -6 23 78.0736842105 23 157 c 3
 23 294.672268908 148.407692308 411 297 411 c 3
 356.888888889 411 356.888888889 403 381 403 c 3
 404 403 412 424 419 431 c 1
 438 420 l 1
 436 414 432.1144823 397.343446901 429 388 c 0
 423 368.736842105 417.044137507 347.444029799 414 266 c 0
 413 241 413 135 413 93 c 3
 413 72.7768968193 416.139970846 50.0202040812 421 32 c 0
EndSplineSet
EndChar
StartChar: uni028B
Encoding: 651 651 1097
Width: 470
Flags: HW
AnchorPoint: "Bottom" 227 -15 basechar 0
AnchorPoint: "Top" 240 465 basechar 0
LayerCount: 2
Fore
SplineSet
146 135 m 3
 146 63.7197265625 190.247070312 47 220 47 c 3
 340.956054688 47 402 155.11328125 402 255 c 3
 402 339.520507812 319 347 268 347 c 1
 266 350 264 353 264 361 c 3
 264 383 294 422 301 430 c 1
 382 430 436 331.124023438 436 251 c 3
 436 124.973632812 351.336914062 -9 204 -9 c 3
 132.245117188 -9 70 38.2607421875 70 131 c 3
 70 189.905273438 73 250.953125 73 312 c 0
 73 322 69 331 59 331 c 3
 49 331 28 319 22 317 c 1
 12 348 l 1
 53 359 107 394 149 422 c 1
 167 406 l 1
 152 323.161132812 146 226.122070312 146 135 c 3
EndSplineSet
EndChar
StartChar: acutecomb
Encoding: 769 769 15
Width: 0
Flags: HW
AnchorPoint: "Top" -198.5 410 mark 0
LayerCount: 2
Fore
SplineSet
-226 444 m 1
 -194 488 -130.806 555.523 -83 593 c 1
 -83 593 -77.0457647059 588.876969697 -72 583 c 1
 -107 558 -174 491 -216 434 c 1
 -226 444 l 1
EndSplineSet
EndChar
StartChar: uni030A
Encoding: 778 778 1114
Width: 0
Flags: HW
AnchorPoint: "Top" -198.5 395 mark 0
LayerCount: 2
Fore
SplineSet
-198 562.963 m 3
 -230.871931137 562.963 -261.451 535.997366022 -261.451 499.51 c 3
 -261.451 463.29047568 -233.089612462 439.037 -198 439.037 c 3
 -165.127898555 439.037 -134.549 466.001659572 -134.549 502.49 c 3
 -134.549 535.803425435 -163.429726461 562.963 -198 562.963 c 3
-198 576.963 m 3
 -156.296 576.963 -120.549 544.193 -120.549 502.49 c 3
 -120.549 457.806 -157.785 425.037 -198 425.037 c 3
 -239.704 425.037 -275.451 454.827 -275.451 499.51 c 3
 -275.451 544.193 -238.215 576.963 -198 576.963 c 3
EndSplineSet
EndChar
StartChar: uni0314
Encoding: 788 788 1124
Width: 0
Flags: HW
AnchorPoint: "TopMark" -231 409 mark 0
AnchorPoint: "TopMark" -227 631 basemark 0
AnchorPoint: "Top" -224 414 mark 0
LayerCount: 2
Fore
SplineSet
-186.665039062 461.453125 m 1
 -255.567191682 511.519783949 -263.865234375 590.531624397 -263.865234375 595.153320312 c 3
 -263.865234375 599.953125 -260.721679688 601.797851562 -257.865234375 603.153320312 c 0
 -250.127019331 606.825334836 -243.59375 611.4453125 -239.568359375 620.0234375 c 0
 -238.493252622 622.314494685 -236.521484375 625.153320312 -232.865234375 625.153320312 c 3
 -229.046875 625.153320312 -227.010742188 622.309570312 -225.865234375 620.153320312 c 0
 -221.286085923 611.533746756 -215.740234375 605.7109375 -207.865234375 603.153320312 c 0
 -204.650438012 602.109229083 -202.865234375 599.953125 -202.865234375 595.153320312 c 3
 -202.865234375 591.153320312 -205.865234375 588.487304688 -208.865234375 587.153320312 c 0
 -217.045561647 583.515844058 -224.874607011 578.37043382 -228.865234375 571.153320312 c 0
 -245.59993443 540.888347213 -211.192942619 493.74004509 -179.46484375 473.203125 c 1
 -186.665039062 461.453125 l 1
EndSplineSet
EndChar
StartChar: uni0357
Encoding: 855 855 1148
Width: 0
Flags: HW
AnchorPoint: "TopMark" -200 382 mark 0
AnchorPoint: "TopMark" -198 562 basemark 0
AnchorPoint: "Top" -198 395 mark 0
LayerCount: 2
Fore
SplineSet
-219 445 m 1
 -189.866666667 445 -162 469.066666667 -162 502 c 3
 -162 532.697674419 -188.6 557 -219 557 c 1
 -225 557 l 1
 -225 571 l 1
 -219 571 l 1
 -180.272727273 571 -148 540.64 -148 502 c 3
 -148 460.506493506 -182.116883117 431 -219 431 c 1
 -225 431 l 1
 -225 445 l 1
 -219 445 l 1
EndSplineSet
EndChar
StartChar: uni0372
Encoding: 882 882 1151
Width: 788
Flags: HW
LayerCount: 2
Fore
SplineSet
158 312 m 0
 158.665039062 281.520507812 180.604492188 284.922851562 194 279 c 1
 194 279 190 256 189 242 c 1
 156.827148438 246.689453125 128.735351562 249.362304688 102 249.442382812 c 0
 78.232421875 249.50390625 55.537109375 247.805664062 32 244 c 1
 32 244 27 268 25 286 c 1
 44.63671875 290.875 66.4541015625 290.875 67 312 c 1
 79 416.999023438 84 603.912109375 72 627 c 1
 68.181640625 644.111328125 50.7275390625 644.111328125 30 648 c 1
 33 686 l 1
 56.6533203125 684.20703125 78.353515625 682.822265625 100.5 682.159179688 c 1
 266.081054688 682.954101562 520.212890625 682.123046875 692.5 681.71484375 c 1
 711.781561669 682.356445312 732.101313165 684.06640625 757 687 c 1
 763 650 l 1
 742.451843262 641.7890625 737.838684082 643.158203125 737 624 c 0
 726 527.192382812 709 335.813476562 730 300 c 1
 734.56677576 280.357421875 748.775918497 279.571289062 764 278 c 1
 764 278 759 258 760 244 c 1
 736.210531656 247.758789062 711.724685471 249.825195312 686 249.58984375 c 0
 661.250976562 249.32421875 635.399414062 246.657226562 608 241 c 1
 608 241 602 264 600 276 c 1
 622.897460938 284.461914062 637.20703125 286.1328125 638 309 c 0
 649.390625 412.486328125 649.434570312 496.606445312 643 611 c 0
 642.609375 627.709960938 617.73828125 642.413085938 576.5 643.53125 c 0
 529.358398438 645.216796875 463.9140625 651.794921875 461 611 c 0
 450 443.37890625 433 112.009765625 454 50 c 0
 463 25 491 24 521 22 c 1
 521 22 516 -0.94140625 517 -17 c 1
 442.306640625 5.56640625 367.328125 4.1357421875 286 -15 c 1
 286 -15 280 8 278 20 c 1
 325 30 354.373046875 31.974609375 356 59 c 0
 367.390625 248.15625 367.434570312 401.911132812 361 611 c 0
 360.181640625 655.258789062 275.310546875 646.499023438 226.5 646.43359375 c 0
 194.55859375 646.610351562 171.834960938 639.114257812 170 632 c 0
 156.96484375 567.3046875 151.73828125 391.74609375 158 312 c 0
EndSplineSet
Position2: "cpsp-1" dx=0 dy=0 dh=50 dv=100
EndChar
StartChar: uni037A
Encoding: 890 890 1157
Width: 95
Flags: HW
AnchorPoint: "Bottom" 61.578 -15 mark 0
LayerCount: 2
Fore
SplineSet
71.515625 -231.512695312 m 3
 71.515625 -248.459678573 76.6067932508 -250.504882812 84.2421875 -250.504882812 c 3
 100.517497958 -250.504882812 116.491878176 -237.232033415 118.528320312 -234.662109375 c 1
 131.528320312 -255.662109375 l 1
 118.999178375 -274.484071293 96.0347959034 -295 64 -295 c 3
 28.918120903 -295 5.5283203125 -277.081054687 5.5283203125 -222.393554688 c 3
 5.5283203125 -178.897831838 18.312157944 -136.103652905 19.5322265625 -89.0400390625 c 1
 26.1251603621 -88.2478615807 76.3752511213 -72.4105478418 90.6904296875 -82.611328125 c 1
 90.6904296875 -97.8299871586 71.515625 -208.848290773 71.515625 -231.512695312 c 3
EndSplineSet
EndChar
StartChar: theta
Encoding: 952 952 773
Width: 488
UnlinkRmOvrlpSave: 1
Flags: HW
AnchorPoint: "Bottom" 232 -15 basechar 0
LayerCount: 2
Fore
SplineSet
235 33 m 3
 346 33 376 300.327148438 376 433 c 3
 376 549 355 657 275 657 c 3
 175 657 131 464 131 258 c 3
 131 117.498046875 168 33 235 33 c 3
272 697 m 3
 393 697 454 577 454 403 c 3
 454 143.506835938 340 -11 230 -11 c 3
 118 -11 52 115.298828125 52 286 c 3
 52 478 130 697 272 697 c 3
EndSplineSet
Refer: 778 58113 N 0.297955 0.00520082 -0.0185432 1.06234 106.023 350.4 2
Position2: "cpsp-1" dx=0 dy=0 dh=50 dv=102
Substitution2: "pcap-1" theta.pcap
Substitution2: "smcp-1" theta.smcp
EndChar
StartChar: uni03D9
Encoding: 985 985 1169
Width: 510
UnlinkRmOvrlpSave: 1
Flags: HW
LayerCount: 2
Fore
SplineSet
288.537109375 6.7001953125 m 1
 286.8359375 -67.3759765625 283.513671875 -153.163085938 281 -214 c 1
 281 -214 214.721679688 -226 204 -226 c 1
 204 -203.36328125 217.919921875 -70.5732421875 224.240234375 8.7001953125 c 1
 288.537109375 6.7001953125 l 1
EndSplineSet
Refer: 609 959 N 1 0 0 1 -4.375e-07 0 2
EndChar
StartChar: uni03E2
Encoding: 994 994 1176
Width: 745
UnlinkRmOvrlpSave: 1
Flags: HW
LayerCount: 2
Fore
SplineSet
627 199 m 1
 663.470588235 216.083333333 683.529411765 222.916666667 720 240 c 1
 720 58.0729927007 657.726682562 -162 464 -162 c 3
 348.059561651 -162 286.476709355 -132 170 -132 c 3
 153.636083055 -132 132 -135.155495574 132 -165 c 3
 132 -177.281768469 141.747222222 -186.214285714 154 -192 c 1
 152 -206 150 -214 148 -228 c 1
 121.818181818 -220.210758377 84 -192.158853169 84 -155 c 3
 84 -90.1330250093 139.362038139 -51 195 -51 c 3
 335.185591271 -51 411.32967443 -78 552 -78 c 3
 668.610599394 -78 627.192086903 152.857942431 627 199 c 1
519 39 m 3
 578.717460938 39 627 106.096153846 627 199 c 0
 627 430.557239601 525.870850412 424.315235343 510.999023438 695.245117188 c 1
 591.33844198 695.487304688 667.244607882 698.896484375 677.385742188 706 c 1
 674.380859375 653.461487409 676.53125 599.871264411 686 558 c 1
 646 553 l 1
 646 585.268907563 643 611.183629007 599 617 c 1
 588.761597929 618.398830456 576.527951903 619.359507712 563.619140625 619.892578125 c 1
 567.228994471 483.613363015 720 450.890560628 720 240 c 0
 720 109.019586348 617.10591468 -9.86328125 492 -9.86328125 c 3
 393.219453367 -9.86328125 328 117.628256089 328 216 c 3
 328 278.337960811 335.6 320.666666667 344 373 c 1
 370.274509804 373 384.725490196 373 411 373 c 1
 419.666666667 320.666666667 427 279.030113727 427 216 c 3
 427 111.247911715 356.776724423 -10 230 -10 c 3
 118.751234802 -10 29 102.464878015 29 240 c 0
 29 449.414059326 189.905160501 494.546195695 198.216796875 619.943359375 c 1
 178.050518954 619.618191916 160.305545639 618.707412876 147 618 c 0
 117 615.657657658 114 584.036036036 109 553 c 1
 66 557 l 1
 80.4287109375 615.5006559 83.5283203125 656.67574724 79.1884765625 706 c 1
 90.4230705838 699.697265625 167.220955252 695.974609375 248.009765625 695.344726562 c 1
 233.072743833 431.796104637 130 490.656149958 130 260 c 0
 130 148.188718441 182.299527572 39.6884765625 248 39.6884765625 c 3
 325.80462195 39.6884765625 363.884615385 136.989009034 379 200 c 1
 390.313131313 137.133333333 419.994132714 39 519 39 c 3
EndSplineSet
EndChar
StartChar: afii10046
Encoding: 1068 1068 57
Width: 599
Flags: HW
LayerCount: 2
Fore
SplineSet
327 349 m 0
 210 349 l 1
 211 251 211.405071907 155.012339425 213 96 c 0
 214 59 218.606582411 44.9226914213 245 41 c 0
 258.456790124 39 319.012345679 34 354 34 c 3
 433.50617284 34 494 83 494 178 c 3
 494 262 445.810945274 349 327 349 c 0
218 616 m 0
 212.870297654 523.66535778 212 379 212 379 c 1
 283.017761066 379 345.251480651 379.707271074 404 371.883789062 c 0
 519.134450796 356.551448525 584 273.933306029 584 181 c 3
 584 70 490.597701149 -4 345 -4 c 3
 282.725 -4 223.975 2 157 2 c 3
 98 2 53 -2 46 -2 c 1
 43 34 l 1
 90 36 127 35.9459853727 127 73 c 0
 127 78 130 176 130 292 c 3
 130 462.579439252 129.145990654 531.058252345 126 616 c 0
 125 643 111 643 38 657 c 1
 43 688 l 1
 116.294 681.428571429 204 681.571428571 316 692 c 1
 318 649 l 1
 260 647 220 652 218 616 c 0
EndSplineSet
Position2: "cpsp-1" dx=0 dy=0 dh=50 dv=100
EndChar
StartChar: afii10088
Encoding: 1094 1094 97
Width: 510
Flags: HW
LayerCount: 2
Fore
SplineSet
489.599609375 31.2001953125 m 1
 489.599609375 -144 l 1
 462.200195312 -144 l 1
 448.57421875 -38.3974609375 433.873046875 -3.7109375 384.545898438 -0.2880859375 c 0
 364.55078125 -0.2880859375 130.084960938 0.0625 107.47265625 0.0625 c 3
 79.650390625 0.0625 51.265625 -2.7841796875 22 -9 c 1
 18 15 l 1
 44 22 52.1025390625 24.98828125 55 51 c 0
 65 140.77734375 66.3642578125 323.4921875 59 354 c 0
 52 383 35 385 19 388 c 1
 19 388 22 404 22 411 c 1
 64 402 126 401 175 413 c 1
 175 411 180 397 181 389 c 1
 156 381 139.435546875 379.172851562 137 350 c 0
 129.008789062 254.278320312 125.620117188 176.330078125 132 70 c 0
 134 31.6669921875 155.455078125 24 180 24 c 0
 300 24 l 3
 313.341796875 24 341.4765625 29.5908203125 345 47 c 0
 359.267578125 99.099609375 354.376953125 274.936523438 352 351 c 0
 351 383 322 382 304 388 c 1
 304 388 307 405 307 412 c 1
 362 402 425 401 471 411 c 1
 471 411 474 393 475 384 c 1
 456 379 432.901367188 379.009765625 430 350 c 0
 420 250.020507812 420.9921875 73.2392578125 425 54 c 0
 430 30 447.599609375 30.2001953125 489.599609375 31.2001953125 c 1
EndSplineSet
EndChar
StartChar: afii10092
Encoding: 1098 1098 101
Width: 526
Flags: HW
LayerCount: 2
Fore
SplineSet
315 214 m 0
 289 215 248 215 248 215 c 1
 248 160.463867188 248.787109375 106.94921875 250 73 c 0
 251 45 254.318359375 36.560546875 268 32 c 0
 274 30 322 25 337 25 c 3
 386 25 412 60.5810546875 412 115 c 1
 412 165 382.21875 211.415039062 315 214 c 0
205 403 m 3
 237 403 280 405 310 409 c 1
 311 382 l 1
 305 382 279.897460938 380.353515625 269 377 c 0
 256 373 255.87109375 359.01171875 255 349 c 0
 250 291.5 250 236.090820312 249 234 c 1
 303 234 344.211914062 238.157226562 380 231 c 0
 440 219 490 177 490 121 c 1
 490 46.599609375 430 -3 339 -3 c 3
 300 -3 250 1 207 1 c 3
 172 1 138 -2 132 -2 c 1
 130 22 l 1
 142 23 177 26 177 55 c 0
 177 57.0703125 181 107.805664062 181 172 c 1
 181 258.658203125 176.107421875 333.974609375 176 335 c 0
 174.154296875 352.61328125 167.296875 366 152 366 c 27
 125.850585938 366 107.41796875 365.96484375 85 358 c 0
 56.9873046875 348.046875 55 346 33 311 c 1
 7 323 l 1
 22 354 41 403 49 420 c 1
 61 411 72.9814453125 403.365234375 96 403 c 0
 144.702148438 402 180.262695312 403 205 403 c 3
EndSplineSet
EndChar
StartChar: afii10094
Encoding: 1100 1100 103
Width: 425
Flags: HW
LayerCount: 2
Fore
SplineSet
214 214 m 0
 188 215 147 215 147 215 c 1
 147 160.463768116 148 106.956521739 149 73 c 0
 150 45 155 40 167 32 c 0
 173 30 221 25 236 25 c 3
 285 25 311 60.5813953488 311 115 c 1
 311 165 281 208 214 214 c 0
210 382 m 1
 204 382 179 380 168 377 c 0
 155 373 155 359 154 349 c 0
 149 291.5 149 236.090909091 148 234 c 1
 202 234 243 237 279 231 c 0
 339 219 389 177 389 121 c 1
 389 46.6 329 -3 238 -3 c 3
 199 -3 149 1 106 1 c 3
 71 1 37 -2 31 -2 c 1
 29 22 l 1
 41 23 76 26 76 55 c 0
 76 57.0707964602 80 107.805309735 80 172 c 1
 80 258.658227848 75 333.96835443 75 335 c 0
 74 360 74 376 62 379 c 0
 57 380 33 383 28 384 c 1
 32 409 l 1
 40 409 72 403 104 403 c 3
 136 403 179 405 209 409 c 1
 210 382 l 1
EndSplineSet
EndChar
StartChar: afii10101
Encoding: 1108 1108 110
Width: 405
UnlinkRmOvrlpSave: 1
Flags: HW
LayerCount: 2
Fore
SplineSet
77 212.046875 m 1
 153.039362911 213.502767918 273.255823043 219.406782598 318 232 c 1
 321 182 l 1
 297.780782343 184.811790632 260.503854725 187.745009126 219.00012207 187.745009126 c 3
 172.02401817 187.745009126 119.597324037 187.533295221 77 184.49609375 c 1
 77 212.046875 l 1
EndSplineSet
Refer: 228 99 N 1 0 0 1 0 0 2
EndChar
StartChar: uni0593
Encoding: 1427 1427 1244
Width: 0
Flags: HW
AnchorPoint: "HbTop" 258.68 619.44 mark 0
LayerCount: 2
Fore
SplineSet
331.080078125 873.600585938 m 1
 337.34375 848.543945312 l 1
 269.483398438 825.576171875 l 1
 340.475585938 790.080078125 l 1
 340.475585938 769.200195312 l 1
 271.572265625 748.3203125 l 1
 341.51953125 714.912109375 l 1
 341.51953125 696.120117188 l 1
 182.83203125 643.919921875 l 1
 174.48046875 671.064453125 l 1
 248.603515625 690.900390625 l 1
 176.567382812 727.440429688 l 1
 176.567382812 748.3203125 l 1
 250.69140625 768.15625 l 1
 178.65625 802.608398438 l 1
 178.65625 825.576171875 l 1
 331.080078125 873.600585938 l 1
EndSplineSet
EndChar
StartChar: uni059A
Encoding: 1434 1434 1251
Width: 0
Flags: HW
AnchorPoint: "HbBottomRight" 429 0 mark 0
LayerCount: 2
Fore
SplineSet
410 -102 m 1
 546 -25 l 1
 563 -59 l 1
 452.190429688 -113.494140625 l 1
 565 -176 l 1
 548 -210 l 1
 410 -125 l 1
 410 -102 l 1
EndSplineSet
EndChar
StartChar: uni05A7
Encoding: 1447 1447 1264
Width: 0
Flags: HW
AnchorPoint: "HbBottom" 255 0 mark 0
LayerCount: 2
Fore
SplineSet
203 -79 m 3
 203 -52.736829941 237.263036684 -40 295.984375 -32 c 1
 298 -64 l 1
 275.014084507 -66 250 -74 250 -80 c 3
 250 -107.780448454 295 -114.988637831 295 -159 c 3
 295 -177.697471294 278.531567478 -200.125 197 -206 c 1
 194 -174 l 1
 239.338372787 -171.333333333 248 -161.114517101 248 -158 c 3
 248 -136 203 -125.010868281 203 -79 c 3
EndSplineSet
EndChar
StartChar: afii57675
Encoding: 1499 1499 138
Width: 469
Flags: HW
AnchorPoint: "HbTopLeft" 121.68 619.44 basechar 0
AnchorPoint: "HbBottom" 206 0 basechar 0
AnchorPoint: "HbMiddle" 218 284 basechar 0
AnchorPoint: "HbTop" 230 619.44 basechar 0
LayerCount: 2
Fore
SplineSet
330.080078125 545.200195312 m 0
 341.66015625 538.810546875 374.208801318 473.715066341 391.559570312 424.559570312 c 0
 400.567382812 399.040039062 429.83984375 323.490234375 429.83984375 256.360351562 c 3
 429.83984375 166.995117188 304.005884564 -2.3203125 252.559570312 -2.3203125 c 3
 195.620246408 -2.3203125 105.83984375 -5.7998046875 105.83984375 -5.7998046875 c 1
 53.6396484375 -30.16015625 l 1
 38.2802734375 -22.0400390625 l 1
 56.83984375 89.599609375 l 1
 99.4914209752 120.491057477 136.888389454 121.400390625 305.639648438 121.400390625 c 3
 342.322265625 121.400390625 383.360351562 172.016445388 383.360351562 226.200195312 c 3
 383.360351562 251.115400311 366.749583601 313.717908338 356.629882812 337.599609375 c 0
 340.862304688 375.435538967 317.209511213 415.580489413 301 426.959960938 c 0
 285.446196481 438.268554688 205.217129536 442.901834495 163.559570312 446.6796875 c 0
 127.97265625 448.954132406 90.4501953126 461.74546826 81.2001953125 473.3203125 c 1
 114.83984375 596.240234375 l 1
 136.16015625 600.879882812 l 1
 168.639648438 575.360351562 l 1
 226.101626683 572.737304688 302.900780652 562.240857041 330.080078125 545.200195312 c 0
EndSplineSet
EndChar
StartChar: afii57677
Encoding: 1501 1501 140
Width: 529
Flags: HW
AnchorPoint: "HbBottomLeft" 74 0 basechar 0
AnchorPoint: "HbBottomRight" 432 0 basechar 0
AnchorPoint: "HbTop" 261 619.44 basechar 0
AnchorPoint: "HbTopLeft" 92.68 619.44 basechar 0
AnchorPoint: "HbBottom" 272 0 basechar 0
AnchorPoint: "HbMiddle" 263 284 basechar 0
AnchorPoint: "HbTopRight" 436 619.44 basechar 0
LayerCount: 2
Fore
SplineSet
420.080078125 0 m 1
 67.51953125 -1.16015625 l 1
 71.7197265625 113.919921875 l 1
 440.280273438 113.919921875 l 1
 420.080078125 0 l 1
102.481445312 452.118164062 m 1
 99.8173828125 440.865234375 93.9873046885 421.4921875 94.2001953125 411.400390625 c 1
 97.6796875004 300.088885308 109.280273438 176.545821716 116.240234375 82.3603515625 c 1
 67.51953125 -1.16015625 l 1
 54.51953125 6.4404296875 l 1
 53.3603515625 511.559570312 l 1
 107.200195312 593.559570312 l 1
 144.364713084 566.871907325 140.621530843 570.520507812 213.655273438 570.520507812 c 3
 298.327709875 570.520507812 408.462919887 562.295898438 435.639648438 557.959960938 c 1
 448.400390625 515.539650805 462.954838988 471.273947411 465.799804688 429.51953125 c 0
 471.599609375 344.398132912 473.919921875 262.728073182 473.919921875 192.559570312 c 0
 473.919921875 153.120117188 472.759765625 117.16015625 471.599609375 88.16015625 c 1
 454.061300794 58 434.330357583 26.6796875 420.080078125 0 c 1
 407.719726562 6.919921875 l 1
 422.902797005 170.294225034 438.085867445 325.069771803 431.759765625 438.080078125 c 1
 319.240234375 446.200195312 197.451171875 448.51953125 135.959960938 448.51953125 c 3
 126.201171875 448.51953125 114.290039062 450.491210938 102.481445312 452.118164062 c 1
EndSplineSet
EndChar
StartChar: afii57679
Encoding: 1503 1503 142
Width: 270
Flags: HW
AnchorPoint: "HbTopLeft" 45.68 619.44 basechar 0
AnchorPoint: "HbTop" 122 619.44 basechar 0
LayerCount: 2
Fore
SplineSet
187.16015625 504.599609375 m 1
 202.240234375 480.240234375 199.919921875 452.400390625 202.240234375 399.040039062 c 1
 208.040039062 321.3203125 210.360351562 247.080078125 210.360351562 182.120117188 c 0
 210.360351562 56.8398437497 209.200195312 -61.4804687501 208.040039062 -158.919921875 c 1
 191.86337011 -188.395865267 173.663447166 -219.005645621 160.51953125 -245.080078125 c 1
 140.360351562 -232 l 1
 158.919921875 15.3515625 174 248.467773438 167.040039062 421.080078125 c 1
 170.183691583 469.799804688 169.554855214 498.799804688 187.16015625 504.599609375 c 1
41.759765625 590.440429688 m 1
 47.5333831399 588.120117188 53.3064606101 585.799804688 59.080078125 583.48046875 c 1
 63.7197265625 576.51953125 70.6796875 569.559570312 75.3203125 563.759765625 c 1
 125.919868681 553.200195312 177.574875726 541.759765625 209.200195312 512.719726562 c 1
 196.440429688 382.799804688 l 1
 191.16015625 395.709456191 185.879882812 406.77464997 180.599609375 417.83984375 c 1
 119.959954702 426.185791663 57.0740717644 432.028046544 29 461.240234375 c 1
 16.240234375 493.540056601 27.83984375 541.990243144 41.759765625 590.440429688 c 1
EndSplineSet
EndChar
StartChar: afii57681
Encoding: 1505 1505 144
Width: 531
Flags: HW
AnchorPoint: "HbTopLeft" 91.68 619.44 basechar 0
AnchorPoint: "HbBottom" 250 0 basechar 0
AnchorPoint: "HbMiddle" 270 284 basechar 0
AnchorPoint: "HbTop" 255 619.44 basechar 0
LayerCount: 2
Fore
SplineSet
397.51953125 544.040039062 m 0
 420.42578125 525.118164062 488 345.737304688 488 254.040039062 c 3
 488 200.990234375 368.672637124 -17.400390625 204.16015625 -17.400390625 c 3
 149.688476562 -17.400390625 56.83984375 175.399414062 56.83984375 258.6796875 c 3
 56.83984375 320.753134685 75.6825669744 402.18876307 122.16015625 475.16015625 c 1
 150.919921875 461.959960938 l 1
 115.689891624 406.016832663 98.83984375 351.842639182 98.83984375 315.51953125 c 3
 98.83984375 253.809936757 194.834607497 113.559570312 242.879882812 113.559570312 c 3
 307.673457994 113.559570312 440.146484375 185.046123269 440.146484375 268.395507812 c 3
 440.146484375 311.700879146 395.713125198 414.174547337 379.559570312 425.959960938 c 0
 356.79390538 442.569479957 221.606341768 443.731135218 136.719726562 447.6796875 c 1
 106.559570312 453.48046875 76.4003906252 468.559570312 46.240234375 482.48046875 c 1
 80.0400390625 597.400390625 l 1
 99.2001953125 602.040039062 l 1
 114.280273438 577.6796875 l 1
 215.437086712 574.754882812 371.961555522 565.152391454 397.51953125 544.040039062 c 0
EndSplineSet
EndChar
StartChar: uni05F3
Encoding: 1523 1523 1278
Width: 149
Flags: HW
LayerCount: 2
Fore
SplineSet
17.5595703125 324.799804688 m 1
 41.2140278926 395.40625 68.2808664609 459.416992188 67.2802734375 577.6796875 c 1
 110.599609375 573.719726562 l 1
 115.147705518 475.313476562 82.6043108131 394.563476562 39.3603515625 314.559570312 c 1
 17.5595703125 324.799804688 l 1
EndSplineSet
EndChar
StartChar: lira
Encoding: 8356 8356 517
Width: 509
UnlinkRmOvrlpSave: 1
Flags: HW
LayerCount: 2
Fore
SplineSet
18 420 m 1
 163.84765625 421.297851562 326.006835938 419.82421875 421 437 c 1
 427 388 l 1
 358.502929688 386.291015625 254.216796875 383.450195312 20 383 c 1
 18 420 l 1
18 293 m 1
 163.847619047 294.297986738 326.007142857 292.824609547 421 310 c 1
 427 261 l 1
 358.50245002 259.290648354 254.216981132 256.449858789 20 256 c 1
 18 293 l 1
139 324 m 3
 139 400.356445312 138.812106138 445.005177015 141 521 c 0
 142.874023438 586.092773438 164.797489233 624.08908856 211 674 c 0
 258.487304688 725.298828125 300.786132812 753 368 753 c 3
 419.098632812 753 443.166992188 728.043945312 491 712 c 1
 463.5 684.400390625 448.5 667.599609375 421 640 c 1
 407.982421875 666.014648438 390.142578125 702 340 702 c 3
 308.446289062 702 285.371593383 701.963591571 265 681 c 0
 222.052734375 636.8046875 219.480537582 594.89916032 217 532 c 0
 214.202148438 461.0546875 216 419.337890625 216 347 c 3
 216 184.7109375 189.109375 145.299804688 112 59 c 1
 205.390625 53.5 259.287109375 48 351 48 c 3
 402.970703125 48 435 97.142578125 463 128 c 1
 471.25 122 476.75 118 485 112 c 1
 445.909179688 61 416.090820312 31 385 -20 c 1
 338.256835938 -20.0029296875 137.473632812 12 34 -20.0029296875 c 1
 18 0 l 1
 128.436523438 105.389648438 139 185.098632812 139 324 c 3
EndSplineSet
EndChar
StartChar: uni211F
Encoding: 8479 8479 2078
Width: 831
UnlinkRmOvrlpSave: 1
Flags: HW
LayerCount: 2
Fore
SplineSet
485 -72 m 1
 591 95.0902527076 741 461.097472924 737 479 c 1
 626 519 l 1
 617.75 542.192771084 663.209090147 573.033501641 692 596 c 1
 739.19 579.23 765.81 569.77 813 553 c 1
 773 475 572.146067416 -19.3583460949 537 -97 c 1
 485 -72 l 1
EndSplineSet
Refer: 2498 82 N 1 0 0 1 0 0 2
EndChar
StartChar: uni2303
Encoding: 8963 8963 2109
Width: 329
Flags: HW
LayerCount: 2
Fore
SplineSet
173 721 m 1
 219 635 245 544 309 464 c 1
 287 454 l 1
 250 492 216 541 164 541 c 3
 112 541 79 492 42 454 c 1
 20 464 l 1
 83.5328467153 544 110.335766423 635 156 721 c 1
 173 721 l 1
EndSplineSet
EndChar
StartChar: uni261C
Encoding: 9756 9756 2114
Width: 2241
Flags: HW
LayerCount: 2
Fore
SplineSet
227.493 480.275 m 1
 178.401 472.663 150.689 468.371 101.594 460.757 c 1
 93.8691 413.082 244.447 408.912 227.493 480.275 c 1
823.456 -100.385 m 1
 821.674 -60.501 792.91 -39.6387 757.787 -39.8809 c 0
 715.507 -40.1699 663.499 -75.8311 669.326 -101.442 c 0
 672.815 -116.764 791.04 -134.5 823.456 -100.385 c 1
1825.2 474.796 m 1
 1793.57 452.477 1775.72 439.887 1744.09 417.571 c 1
 1790.28 409.132 l 1
 1834.35 392.028 1910.85 90.5078 1840.19 -91.3711 c 1
 1844.61 -94.3838 1847.1 -96.085 1851.52 -99.1006 c 1
 1989.62 -17.6104 1923.24 389.222 1825.2 474.796 c 1
65.4062 488.98 m 1
 133.471 493.169 171.866 495.579 238.634 514.306 c 1
 246.596 504.546 534.656 534.515 542.911 561.332 c 1
 564.898 551.482 577.512 547.037 605.929 570.229 c 1
 773.769 556.794 986.458 616.839 1106 648 c 1
 1329.25 569.701 1572.25 468.729 1696.18 430.638 c 1
 1739.57 483.052 1793.53 507.924 1848.05 516.793 c 1
 2110.43 547.303 l 1
 2163.02 255.056 2175.68 -29.6611 2148.35 -306.85 c 1
 1892.24 -297.519 l 1
 1875.45 -261.822 1858.65 -226.126 1841.85 -190.43 c 1
 1814.48 -179.761 1789.09 -165.358 1754.94 -149.172 c 1
 1614.8 -241.059 1469.34 -206.779 1327.96 -171.926 c 1
 1302.89 -235.181 1261.64 -288.312 1185.82 -267.69 c 1
 1164.81 -330.418 1107.45 -355.95 1072.25 -326.185 c 0
 999.4 -264.557 891.756 -230.288 835.198 -172.483 c 1
 682.232 -206.512 560.41 -112.538 687.913 48.1104 c 1
 660.334 112.992 745.543 185.467 777.889 271.683 c 1
 695.375 282.243 590.004 307.018 566.297 298.763 c 0
 515.511 281.073 363.284 309.172 334.218 317.119 c 1
 176.398 304.119 59.9014 331.849 65.4062 488.98 c 1
1084.38 592.183 m 0
 825.397 554.269 996.286 546.32 636.788 522.399 c 0
 585.692 519 590.137 488.802 569.033 486.987 c 0
 550.55 485.4 544.591 511.314 526.415 507.695 c 0
 434.1 489.321 365.902 488.599 263.3 476.39 c 1
 250.997 394.928 192.292 410.334 113.398 407.811 c 1
 114.412 376.567 264.124 347.652 350.099 377.665 c 1
 407.623 368.682 461.089 357.379 523.575 380.384 c 1
 604.456 372.626 651.254 355.211 727.339 401.371 c 1
 807.605 356.047 974.055 358.16 1064.13 421.6 c 1
 1070.94 421.779 1071.33 413.38 1077.52 410.565 c 1
 1051.33 362.256 1084.46 312.087 1114.36 315.387 c 0
 1130.39 317.154 1149.22 354.088 1163.9 376.21 c 0
 1172.19 388.706 1208.8 379.251 1202.08 365.563 c 0
 1164.56 289.234 1183.03 221.194 1302.92 308.083 c 0
 1330.21 327.857 1391.28 329.565 1389.06 296.334 c 0
 1387.54 273.576 1345.13 302.372 1303.25 264.596 c 0
 1210.07 180.539 1123.04 118.563 1008.84 107.013 c 1
 996.464 98.4824 989.483 93.6709 977.105 85.1396 c 1
 876.257 142.62 705.042 54.8047 694.435 -5.28809 c 1
 757.921 -1.57617 796.29 11.3975 834.737 -28.0469 c 1
 861.688 11.0107 922.306 3.84277 985.483 11.0127 c 1
 998.435 5.33398 1005.74 2.13281 1018.69 -3.54395 c 1
 1031.07 4.98828 1038.05 9.79883 1050.42 18.3291 c 1
 1063.43 11.9795 1070.77 8.39844 1083.78 2.04883 c 1
 1093.29 11.6924 1098.66 17.1289 1108.17 26.7725 c 1
 1169 0.666992 1265.6 3.79102 1298.85 55.3369 c 0
 1307.77 69.1582 1331.21 74.7871 1353.92 73.9941 c 0
 1497.96 68.9609 1697.02 60.1641 1760.13 150.666 c 0
 1796.28 202.51 1766.13 361.801 1721.3 387.54 c 1
 1551.99 437.4 1391.01 515.096 1175.49 584.343 c 0
 1141.59 595.234 1119.66 597.348 1084.38 592.183 c 0
EndSplineSet
EndChar
StartChar: female
Encoding: 9792 9792 360
Width: 500
UnlinkRmOvrlpSave: 1
Flags: HMW
LayerCount: 2
Fore
SplineSet
81 24 m 1
 101 24 l 1
 115.416912499 10.7395453574 187.624327267 4 251.87890625 4 c 3
 312.133953087 4 373.360476934 10.5961022541 400 24 c 1
 421 24 l 1
 421 -57 l 1
 400 -57.123046875 l 1
 373.201260711 -41.5314045433 311.526996602 -33.97265625 251.443359375 -33.97265625 c 3
 184.151483133 -33.97265625 118.726092129 -42.4640183291 100 -58.888671875 c 1
 81 -59 l 1
 81 24 l 1
EndSplineSet
Refer: 2145 9906 N 1 0 0 1 0 0 2
EndChar
StartChar: uni2662
Encoding: 9826 9826 2127
Width: 619
Flags: HW
LayerCount: 2
Fore
SplineSet
498.517578125 342.833007812 m 1
 397.571289062 456.184570312 335.46484375 555.102539062 303.256835938 608.275390625 c 1
 216.374023438 464.251953125 139.641601562 380.024414062 107.012695312 342.665039062 c 1
 141.94140625 302.50390625 214.350585938 224.689453125 302.932617188 63.939453125 c 1
 384.573242188 212.758789062 464.114257812 303.16015625 498.517578125 342.833007812 c 1
EndSplineSet
Refer: 282 9830 N 1 0 0 1 -0.115625 0 2
EndChar
StartChar: club
Encoding: 9827 9827 263
Width: 768
Flags: HW
LayerCount: 2
Fore
SplineSet
175.969726562 392.694335938 m 3
 306.624447552 392.694335938 295.022899538 290.594937412 365.951171875 274.599609375 c 1
 364.872926089 313.622054143 350.822922484 338.391466501 326.708984375 351 c 0
 285.639652449 372.474055588 227.114257812 408.683072444 227.114257812 482.0390625 c 3
 227.114257812 569.247728174 297.050192074 649.26171875 384.501953125 649.26171875 c 3
 471.068359375 649.26171875 540.38671875 567.73828125 540.38671875 482.0390625 c 3
 540.38671875 409.105705604 481.681411911 372.775264968 440.602539062 351 c 0
 416.586625184 338.269541448 402.623174891 313.479327171 401.548828125 274.599609375 c 1
 472.478160739 290.594937412 463.046999198 392.694335938 591.530273438 392.694335938 c 3
 668.482421875 392.694335938 731 319.179871975 731 236.065429688 c 3
 731 152.67856617 665.34375 92.6005859375 584.255859375 92.6005859375 c 3
 451.380859375 92.6005859375 478.138671875 219.286132812 408.0078125 219.286132812 c 0
 404.422851562 219.286132812 400.708984375 206.67578125 402.03125 205.41015625 c 2
 401.942382812 205.471679688 l 1
 403.623046875 112.8125 457.827148438 21.8212890625 538.497070312 21.8212890625 c 0
 549.88671875 21.8212890625 559.5078125 16.1201171875 559.51953125 6.9765625 c 0
 559.522460938 2.82421875 556.21484375 -8.271484375 550.28515625 -8.271484375 c 0
 546.056640625 -8.271484375 471.8125 -0.28125 392.891601562 -0.28125 c 1
 392.891601562 -0.0546875 367.3046875 0.1708984375 367.3046875 0.396484375 c 0
 363.646484375 0.419921875 360.077148438 0.431640625 356.592773438 0.431640625 c 0
 259.481445312 0.431640625 229.2421875 -8.271484375 217.172851562 -8.271484375 c 0
 211.072265625 -8.271484375 207.85546875 2.755859375 207.85546875 6.5498046875 c 0
 207.85546875 10.615234375 211.549804688 22.1865234375 219.346679688 22.1865234375 c 0
 219.892578125 22.1865234375 220.458984375 22.166015625 221.044921875 22.123046875 c 0
 223.80859375 21.921875 226.560546875 21.8212890625 229.298828125 21.8212890625 c 0
 301.891601562 21.8212890625 364.00390625 104.493164062 365.576171875 205.484375 c 1
 365.467773438 205.41015625 l 1
 366.3828125 212.134765625 361.490234375 219.286132812 359.493164062 219.286132812 c 0
 289.868164062 219.286132812 315.401367188 92.6005859375 183.244140625 92.6005859375 c 3
 101.18359375 92.6005859375 36.5009765625 152.938750712 36.5009765625 236.065429688 c 3
 36.5009765625 319.179871975 99.0185546877 392.694335938 175.969726562 392.694335938 c 3
EndSplineSet
EndChar
StartChar: uni26A2
Encoding: 9890 9890 2137
Width: 690
UnlinkRmOvrlpSave: 1
Flags: HMW
LayerCount: 2
Fore
SplineSet
251.443359375 -33.97265625 m 3
 184.151483133 -33.97265625 118.726092129 -42.4640183291 100 -58.888671875 c 1
 81 -59 l 1
 81 24 l 1
 101 24 l 1
 115.416912499 10.7395453574 187.624327267 4 251.87890625 4 c 3
 312.133953087 4 377.624327267 4 441.87890625 4 c 3
 502.133953087 4 563.360476934 10.5961022541 590 24 c 1
 611 24 l 1
 611 -57 l 1
 590 -57.123046875 l 1
 563.201260711 -41.5314045433 501.526996602 -33.97265625 441.443359375 -33.97265625 c 3
 374.151483133 -33.97265625 311.526996602 -33.97265625 251.443359375 -33.97265625 c 3
EndSplineSet
Refer: 2145 9906 N 1 0 0 1 0 0 2
Refer: 2145 9906 N 1 0 0 1 190 0 2
EndChar
StartChar: uni26B2
Encoding: 9906 9906 2145
Width: 500
UnlinkRmOvrlpSave: 1
Flags: HMW
LayerCount: 2
Fore
SplineSet
274 96 m 1
 274.59375 -80.6616541353 275.1875 -124.330827068 293 -168 c 1
 293 -188 l 1
 207 -188 l 1
 207 -168 l 1
 226.8 -121 226.8 -97 229 96 c 1
 274 96 l 1
EndSplineSet
Refer: 2144 9898 N 1 0 0 1 0 0 2
EndChar
StartChar: uni2B24
Encoding: 11044 11044 2149
Width: 1070
Flags: HW
LayerCount: 2
Fore
SplineSet
35 260.54296875 m 3
 35 536.330078125 258.684570312 760 535 760 c 3
 811.315429688 760 1035 536.330078125 1035 260.54296875 c 3
 1035 -15.244140625 811.315429688 -240 535 -240 c 3
 258.684570312 -240 35 -15.244140625 35 260.54296875 c 3
EndSplineSet
EndChar
StartChar: uniE000
Encoding: 57344 57344 2215
Width: 0
Flags: HW
LayerCount: 2
Fore
SplineSet
-19 0 m 3
 -19 10 -10 19 0 19 c 3
 10 19 19 10 19 0 c 3
 19 -10 10 -19 0 -19 c 3
 -10 -19 -19 -10 -19 0 c 3
EndSplineSet
EndChar
StartChar: uniE001
Encoding: 57345 57345 2216
Width: 0
Flags: HW
LayerCount: 2
Fore
SplineSet
-22 0 m 3
 -22 12 -12 22 0 22 c 3
 12 22 22 12 22 0 c 3
 22 -12 12 -22 0 -22 c 3
 -12 -22 -22 -12 -22 0 c 3
EndSplineSet
EndChar
StartChar: c.pcap
Encoding: 57349 57349 229
Width: 414
Flags: HW
AnchorPoint: "Bottom" 231 -15 basechar 0
AnchorPoint: "Top" 240.77 489 basechar 0
LayerCount: 2
Back
SplineSet
338.083932231 310.649429081 m 0
 338.736665146 326.836781738 340.329500033 342.105016818 345.469008792 359.936827936 c 1
 311.797606311 376.7449686 284.603620051 389.536528876 239.077148438 389.536528876 c 0
 187.45420539 389.536528876 140.633123952 371.407702077 106.943043083 337.717621208 c 0
 73.9337961054 304.70837423 53.1251844351 256.42764677 53.1251844351 194.282226562 c 0
 53.1251844351 138.213258329 73.884542939 91.3253758847 106.632014201 58.5779046223 c 0
 138.858603827 26.351314997 182.841938467 7.70370549878 230.543945312 7.70370549878 c 0
 268.025564772 7.70370549878 304.78137068 17.594716328 338.475045616 29.4898146098 c 1
 344.040927068 52.0266555317 350.651181019 73.0395632708 355.580925532 95.9255665112 c 0
 356.227915087 98.929171466 359.098636132 101.441986749 362.421875 101.441986749 c 0
 366.187523255 101.441986749 369.420502374 98.2108872096 369.420502374 94.443359375 c 0
 369.420502374 93.9462587878 369.367943072 93.4491582005 369.262824468 92.9611522388 c 0
 363.957577747 68.3319055677 356.964683804 46.5863683088 351.186248408 22.5194525759 c 0
 350.647605243 20.2760287439 348.881421732 18.3397221763 346.755546277 17.5760218216 c 0
 311.461572326 4.89700040224 271.898231457 -6.29354924878 230.543945312 -6.29354924878 c 0
 120.884849702 -6.29354924878 39.1279296875 81.8114999132 39.1279296875 194.282226562 c 0
 39.1279296875 259.639458123 61.1755285147 311.749096512 97.0435481468 347.617116144 c 0
 133.61969871 384.193266708 184.145957075 403.533783624 239.077148438 403.533783624 c 0
 286.738960176 403.533783624 316.917780822 389.789437947 350.013179741 373.316782727 c 1
 351.573143758 377.27935727 353.35002542 381.286174424 355.378493269 385.329456046 c 0
 356.468577421 387.502286747 358.975536372 389.187103936 361.635742188 389.187103936 c 0
 365.401390442 389.187103936 368.634369561 385.956004397 368.634369561 382.188476562 c 0
 368.634369561 381.110575662 368.38724341 380.032674762 367.892991106 379.047497079 c 0
 356.259506811 355.858836101 353.69852252 334.066678864 352.260267132 313.783522025 c 0
 351.896018053 308.646658817 352.645573924 303.559367938 349.752739727 300.666533742 c 0
 347.578302736 298.49209675 346.030578487 298.511173867 344.176815757 298.511173867 c 0
 340.711308946 298.511173867 336.877167548 300.216508614 336.877167548 303.935421558 c 0
 336.877167548 306.257059946 338.083932231 308.829602861 338.083932231 310.649429081 c 0
EndSplineSet
Fore
SplineSet
39.1279296875 194.282226562 m 3
 39.1279296875 336.262695312 138.525260575 403.534179688 239.077148438 403.534179688 c 3
 277.018787968 403.534179688 300.130728071 395.525528539 326.88671875 384.474609375 c 0
 350.217916461 374.838218669 346.382391748 367.60626615 358.453125 391.521484375 c 1
 371 384.879882812 l 1
 356.67578125 359.491210938 352.638139977 335.815629044 352.260742188 313.783203125 c 0
 352.000458668 298.587890624 352.466528844 297.822265624 337.306640625 299.069335938 c 1
 339 362 352.766049153 354.581914733 336 364 c 0
 312.339209066 377.291106597 275.54716254 390 239 390 c 3
 139.666071829 390 53 319.925035569 53 195 c 3
 53 76.29338754 140.548389913 8 230 8 c 3
 351.016527797 8 348 68 357.37109375 103.5625 c 1
 370.57421875 99.3095703125 l 1
 365.154296875 71.8583984375 357.21875 48.4306640625 350.3046875 18.7958984375 c 1
 314.076735174 5.6142578125 273.231476571 -6.2939453125 230.543945312 -6.2939453125 c 3
 124.289889513 -6.2939453125 39.1279296875 78.486328125 39.1279296875 194.282226562 c 3
EndSplineSet
EndChar
StartChar: l.pcap
Encoding: 57358 57358 498
Width: 383
Flags: HW
AnchorPoint: "TopRight" 310.5 351.506 basechar 0
AnchorPoint: "Bottom" 193 -15 basechar 0
AnchorPoint: "Top" 146.241 489 basechar 0
LayerCount: 2
Fore
SplineSet
202.91796875 396.361328125 m 1
 204.5625 377.766601562 l 1
 162.453125 371.611328125 156.059570312 367.9375 153.27734375 331.329101562 c 0
 148.697265625 267.321289062 145.629882812 143.331054688 148.571289062 57.5810546875 c 0
 149.034179688 43.232421875 153.795898438 25.58203125 187.694335938 23.759765625 c 0
 208.470703125 22.9658203125 230.291015625 22.78125 244.0546875 24.2705078125 c 0
 318.55078125 32.86328125 341.694335938 59.1591796875 353.71484375 97.71484375 c 1
 368 93.923828125 l 1
 365.547851562 64.802734375 352.833007812 29.0302734375 342.202148438 -10.8583984375 c 1
 324.029296875 -3.5439453125 308.276367188 -0.6708984375 285.8984375 -1.2470703125 c 0
 261.569335938 -1.1103515625 202.379882812 0.5107421875 148.288085938 0.5107421875 c 1
 73.16015625 0.5107421875 45.51953125 -1.7861328125 40.841796875 -1.7861328125 c 1
 39.0556640625 13.8525390625 l 1
 70.8359375 18.423828125 82.572265625 24.98828125 82.884765625 48.751953125 c 0
 83.1962890625 68.3876953125 85.15234375 118.500976562 85.46484375 169.788085938 c 1
 86.087890625 240.428710938 84.2548828125 314.598632812 82.0908203125 345.249023438 c 0
 80.4462890625 368.55078125 66.810546875 374.106445312 40.841796875 376.291992188 c 1
 42.4853515625 395.879882812 l 1
 67.9404296875 392.151367188 91.427734375 390.705078125 112.987304688 390.705078125 c 3
 146.635742188 390.705078125 175.654296875 393.15625 202.91796875 396.361328125 c 1
EndSplineSet
EndChar
StartChar: aogonek.pcap
Encoding: 57406 57406 192
Width: 425
UnlinkRmOvrlpSave: 1
Flags: HW
LayerCount: 2
Fore
SplineSet
143.658203125 152.256835938 m 1
 166.760742188 147.873046875 228.293945312 148.784179688 252.259765625 149.141601562 c 1
 234.357421875 196.650390625 218.28515625 235.573242188 195.754882812 282.887695312 c 1
 188.006835938 265.853515625 160.5703125 194.850585938 143.658203125 152.256835938 c 1
285.221886005 -15.000002649 m 0
 295.876554076 -6.37326304821 300.440999401 -2.33821261418 300.440999401 5.66170634304 c 0
 300.440999401 10.2580366813 298.934255986 16.1631875036 296.210148895 25 c 0
 285.705641551 59.0758856722 273.372108094 87.405761341 261.342773438 123.435546875 c 1
 231.176757812 129.916015625 167.497070312 132.1015625 135.071289062 129.077148438 c 1
 123.00390625 100.045898438 112.61025193 82.5008167026 105.403320312 54.2529296875 c 0
 99.7470703125 32.0830078125 121.645507812 19.5087890625 156.688476562 14.0341796875 c 1
 154.732421875 -5.958984375 l 1
 131.793945312 -2.5185546875 95.4580078125 -0.056640625 63.751953125 -0.056640625 c 0
 48.3212890625 -0.056640625 33.9990234375 -0.73046875 22.9189453125 -2.2451171875 c 1
 22.9189453125 -2.2451171875 21.1669921875 9.92578125 20.962890625 16.404296875 c 1
 52.705078125 21.65625 62.1826550072 39.5948320251 66.583984375 49.265625 c 0
 104.068359375 131.627929687 167.625640936 278.218152448 203.504882812 373.689453125 c 0
 206.047851562 380.456054688 208.674804688 389.806640625 210.075195312 402.825195312 c 1
 229.948242188 402.201171875 l 1
 230.861328125 392.50390625 232.733044429 382.513088397 234.958007812 375.505859375 c 0
 273.525390625 254.04296875 321.851581308 119.58331365 363.8203125 37.4560546875 c 0
 372.899414062 19.689453125 389.788085938 16.81640625 404 15.26171875 c 1
 404 15.26171875 402.865234375 3.5791015625 402.35546875 -2.5439453125 c 1
 387.443922862 -1.36328125 368.141806246 -0.5849609375 348.623046875 -0.5849609375 c 3
 336.434405374 -0.5849609375 319.6239983 -4.3138716335 309.193971127 -12.9999980669 c 0
 249.820663116 -62.446087862 225 -123.287230208 225 -167 c 0
 225 -220.067382812 253.479492188 -251.530273438 289.515625 -251.530273438 c 0
 303.508789062 -251.530273438 320.310546875 -244.583984375 337.55078125 -229.2578125 c 1
 337.55078125 -229.2578125 347.568941418 -234.34613956 345.349609375 -237.658203125 c 0
 323.9765625 -269.5546875 287.967773438 -293.658203125 255.12109375 -293.658203125 c 0
 209.392578125 -293.658203125 168.912109375 -258.805664062 168.912109375 -200.493164062 c 0
 168.912109375 -158.637366812 200.150981716 -83.8791581566 285.221886005 -15.000002649 c 0
EndSplineSet
EndChar
StartChar: uogonek.pcap
Encoding: 57459 57459 2282
Width: 504
UnlinkRmOvrlpSave: 1
Flags: HW
LayerCount: 2
Fore
SplineSet
351.630859375 15.54296875 m 1
 287.447679199 -46.1188656603 277.771484375 -75.4471425755 277.771484375 -132 c 3
 277.771484375 -178.376408535 299.134509604 -205.872070312 326.166015625 -205.872070312 c 3
 341.840568725 -205.872070312 360.660571522 -195.18359375 379.97265625 -171.599609375 c 1
 379.97265625 -171.599609375 391.081054688 -181.926757812 393.771484375 -190 c 1
 370.083847314 -242.788085938 330.174993147 -266 293.771484375 -266 c 3
 248.572780919 -266 208.561523438 -226.657902331 208.561523438 -160.834960938 c 3
 208.561523438 -119.928898898 239.248200448 -40.7982776007 327 23 c 1
 351.630859375 15.54296875 l 1
EndSplineSet
Refer: 812 57367 N 1 0 0 1 0 0 2
EndChar
StartChar: gamma.pcap
Encoding: 57528 57528 391
Width: 428
Flags: HW
AnchorPoint: "Top" 225 465 basechar 0
AnchorPoint: "Bottom" 179 -15 basechar 0
LayerCount: 2
Fore
SplineSet
256.62109375 -8.951171875 m 1
 225.024366812 -0.798609277274 196.671674828 3.0546875 166.033203125 3.0546875 c 0
 138.572780665 3.0546875 109.2761892 -0.0406206768916 74.162109375 -5.91015625 c 1
 67.67578125 17.072265625 l 1
 95.3134765625 24.65234375 110.3203125 34.23828125 113.567382812 67.4853515625 c 1
 114.889579777 85.4880480964 115.765625 145.567458948 115.765625 205.577148438 c 0
 115.765625 263.5278182 114.948702627 321.4134694 112.927734375 341.279296875 c 0
 110.853515625 362.673828125 98.2548828125 366.462890625 60.1884765625 374.123046875 c 1
 63.6328125 394.640625 l 1
 96.144625757 393.017140601 136.284031063 392.147460938 176.536132812 392.147460938 c 0
 269.111220204 392.147460938 362.28241114 396.746981326 364.629882812 407.35546875 c 1
 380.622043098 399.71808043 385 391.469157634 385 375.875976562 c 0
 385 359.922764973 380.417784638 336.282371159 379.001953125 297.745117188 c 1
 358.485351562 295.85546875 l 1
 352.068359375 312.84375 353.631835938 338.673828125 328.409179688 350.973632812 c 0
 303.916854441 362.87990949 273.572262839 367.559570312 244.127929688 367.559570312 c 0
 228.851877468 367.559570312 213.818146824 366.300070422 199.969726562 364.13671875 c 0
 190.892578125 363.181640625 189.325195312 354.241210938 188.830078125 344.518554688 c 0
 184.79481923 304.417097191 182.590820312 262.225594581 182.590820312 217.225585938 c 0
 182.590820312 171.335502051 184.882881746 122.524705243 189.862304688 70.03125 c 0
 192.9609375 37.361328125 207.532226562 26.888671875 260.641601562 26.4501953125 c 1
 256.62109375 -8.951171875 l 1
EndSplineSet
EndChar
StartChar: delta.pcap
Encoding: 57529 57529 280
Width: 485
Flags: HW
LayerCount: 2
Fore
SplineSet
285.659179688 45.7548828125 m 1
 324.258789062 45.88671875 337.6640625 45.7548828125 338.96484375 49.2783203125 c 1
 308.944335938 117.141601562 253.139648438 232.26953125 228 292 c 1
 216.70703125 273.500976562 133.256835938 116.30078125 107.731445312 55.1494140625 c 1
 113.859375 48.103515625 117.209960938 44.8681640625 173.290039062 45.7548828125 c 1
 285.659179688 45.7548828125 l 1
30 -5 m 1
 35.5263671875 13.9658203125 52.3955078125 32.375 59.2529296875 44.9091796875 c 0
 126.391601562 167.627929688 180.909179688 273.905273438 229.573242188 373.723632812 c 0
 240.276367188 395.677734375 237.375 396.623046875 239.973632812 416 c 1
 267.927734375 416 l 1
 271.177734375 400.146484375 267.797851562 397.754882812 277.028320312 374.8984375 c 0
 330.381835938 242.78515625 362.102539062 162.928710938 435.646484375 34.33984375 c 0
 449.204101562 10.634765625 450.923828125 16.607421875 461 -4.4130859375 c 1
 441.037593984 -1.91692038309 351.647565449 -0.730825054086 259.152985931 -0.730825054086 c 0
 155.807868773 -0.730825054086 48.5870872891 -2.21152463898 30 -5 c 1
EndSplineSet
EndChar
StartChar: oe.smcp
Encoding: 57767 57767 587
Width: 837
Flags: HW
LayerCount: 2
Fore
SplineSet
296.1 459.6 m 3
 203.4 459.6 132.8 388.15478 132.8 283.2 c 3
 132.8 155.306808655 230.3 33.6 347.8 33.6 c 3
 376.804715059 33.6 405.935950771 42.5451340827 409.8 57.7 c 1
 415.5674084 73.8999529077 420.309832 162.888955089 420.309832 222.727357712 c 1
 420.309832 288.011711099 416.141805934 380.973502625 409.9 404.8 c 0
 396.109834275 445.0786 340.315279264 459.6 296.1 459.6 c 3
328.1 -7 m 3
 163.8 -7 50.3 119.376278814 50.3 240.8 c 3
 50.3 377.938288451 179.1 497.3 331 497.3 c 3
 395.325126165 497.3 384.845503701 486.457226563 539.540136719 486.457226563 c 3
 641.725705142 486.457226563 736.087911104 489.201962829 748.5 492.1 c 1
 756.88914922 484.849301561 759.914926681 479.36789013 759.914926681 471.539399847 c 1
 759.914926681 456.670710957 749.028391211 433.363747848 743.2 373.8 c 1
 720.2 371.5 l 1
 713.4 390 725.958054185 425.894630543 698.5 440.3 c 0
 662.8 456.9 580.77104347 458.463449275 524.4 451.9 c 0
 512.7 450.6 504.487405316 439.369107199 503.6 428.4 c 0
 498.9 370.608093882 494.6 315.283575543 493.6 262.2 c 1
 538 262.8 633.513891811 263.952315302 647.6 265.9 c 0
 679.7 270.9 684.7 287.8 697.2 321.3 c 1
 722.1 316.4 l 1
 716.442420932 295.626763455 714.149326056 272.293525599 714.149326056 248.735805035 c 1
 714.149326056 221.78982199 717.130357917 194.526763455 721.5 170.9 c 1
 694.6 164 l 1
 680.2 225.2 681.871416 221.596157231 646.9 228.9 c 0
 615.5 235.3 557.9 234.3 493.6 234.6 c 1
 493.3 165.93140874 496.166129273 106.893251833 506.5 60 c 0
 509.1 49.3 515.291402349 41.5607335101 526.7 39.9 c 0
 557.183045176 34.9600423771 582.833233234 30.7081771588 607.431621549 30.7081771588 c 1
 634.112614586 30.7081771588 659.71404379 35.6836571193 689 51 c 0
 734 74.5 739.1 89.8 765.5 137.1 c 1
 787.2 131.5 l 1
 776.1 83.7 764.4 31.7068432671 758 -2.8 c 1
 680.825054756 -2.14937139029 598.03577267 0.6516280625 522.328497657 0.6516280625 c 3
 419.276600354 0.6516280625 389.553497869 -7.000003 328.1 -7 c 3
EndSplineSet
EndChar
StartChar: ampersand.smcp
Encoding: 57801 57801 187
Width: 593
Flags: HW
LayerCount: 2
Fore
SplineSet
192.9 263.4 m 1
 143.891210938 244.483105468 114.9 208.541894532 114.9 172.6 c 3
 114.9 95.2705078125 159.366894532 47.4 232.2 47.4 c 3
 279.401464843 47.4 309.391503907 90.8931640625 329.3 118.7 c 1
 277.409082032 224.858398438 221.069921875 252.580957032 192.9 263.4 c 1
192.1 433 m 0
 170.837109375 433 138.6 415.440332032 138.6 386.4 c 3
 138.6 346.924121093 184.003515625 329.527148437 213.8 312.8 c 1
 246.453125 329.490722657 262.4 344.945703125 262.4 360.4 c 3
 262.4 395.987792968 233.36328125 433 192.1 433 c 0
537.9 330.1 m 1
 501.049414062 330.1 476.254296875 314.076660157 463.3 284.1 c 0
 441.226171875 233.681640625 423.110546875 192.752734375 393.4 145.3 c 1
 422.134960938 66.3299804687 452.271777343 41 475.4 41 c 3
 504.221484375 41 523.694628907 85.2838867187 534.6 113.3 c 1
 565.6 100.3 l 1
 537.385742188 36.0017578125 516.225390625 -5 440.4 -5 c 3
 401.462207032 -5 369.1359375 32.9202148438 349.3 80.7 c 1
 327.303027343 57.93515625 292.066503907 -9.6 189.2 -9.6 c 3
 93.5419921875 -9.6 42.9 62.8987304688 42.9 128.6 c 3
 42.9 204.257714843 97.551171875 256.922363282 159.9 281.4 c 1
 127.554296875 298.86875 100.6 328.43125 100.6 367.4 c 3
 100.6 440.728808593 163.35 468.543066407 226.1 491.3 c 1
 295.729394532 467.126269532 324.4 428.447070312 324.4 366.4 c 3
 324.4 355.151660157 285.353613282 317.890722657 248.8 296.8 c 1
 291.074707032 282.158300782 346.700292968 232.502148438 373.4 180.3 c 1
 395.065527343 216.879101563 420.17421875 277.709375 427.3 312.1 c 0
 431.9 335.871484375 401.233105468 350.500195313 385.9 356.9 c 1
 396.9 389.9 l 1
 433.554296875 376.217382812 497.263574218 364.244921875 540.9 365.1 c 1
 537.9 330.1 l 1
EndSplineSet
EndChar
StartChar: uni0223.smcp
Encoding: 57844 57844 1038
Width: 531
Flags: HW
LayerCount: 2
Fore
SplineSet
224.677441406 463.511621094 m 1
 203.00230931 463.511621094 178.766210938 438.022070312 178.766210938 416.911328125 c 3
 178.766210938 367.660896524 230.288035688 345.352704968 283.790039063 338.138964843 c 0
 392.107125381 323.705104134 484 250.194198953 484 170.309472656 c 3
 484 63.7291917256 389.657643204 -7 264.387890625 -7 c 3
 153.288002058 -7 50 48.8514979976 50 154.195605468 c 3
 50 240.240821586 143.146960603 305.380551821 227.499998627 324.219110029 c 1
 238.6219379 329.146454135 249.598609591 332.403448728 260.183984375 333.851757813 c 1
 315.857745779 338.138687304 350.260058594 379.28022507 350.260058594 417.695800781 c 3
 350.260058594 449.168652344 330.576326926 505.101464843 283.4203125 511.91640625 c 1
 289.7796875 538.396582031 l 1
 354.400885826 536.178027344 426.769042968 506.184179687 426.769042968 432.215136719 c 3
 426.769042968 383.227551655 379.669862744 338.418551311 313.800001935 320.520564657 c 1
 301.28529488 314.757637163 288.079467985 310.696168385 274.383203125 308.6359375 c 1
 204.818886776 301.928129463 133.958789063 244.032281355 133.958789063 180.7765625 c 3
 133.958789063 105.581999592 192.904389331 28.8262695312 279.17265625 28.8262695312 c 3
 385.416527779 28.8262695312 397.656445312 114.505644194 397.656445312 151.279785157 c 3
 397.656445312 220.86652089 345.20688824 287.555051865 258.317285156 299.409082032 c 0
 170.07353042 311.254067559 97.7385742188 348.836466144 97.7385742188 398.029101563 c 3
 97.7385742188 448.255957031 167.533615245 489.461816407 220.656835938 489.461816407 c 1
 224.677441406 463.511621094 l 1
EndSplineSet
EndChar
StartChar: psi.smcp
Encoding: 57861 57861 674
Width: 579
Flags: HW
LayerCount: 2
Fore
SplineSet
203.517871094 494.8 m 1
 235.218077234 487.769511719 263.240776501 484.684082031 291.770605469 484.684082031 c 0
 320.127123945 484.684082031 348.975136121 487.550195313 382.417871094 492.5 c 1
 383.654296875 460 l 1
 355.598117187 458.7 336.063576274 466.093580727 332.854296875 429.1 c 0
 328.724779229 380.534315795 324.482851481 320.053887304 323.968901272 240.76597182 c 1
 432.583951288 282.979710165 388.281399648 489.576855469 503.46015625 489.576855469 c 1
 536.602371902 489.576855469 550.038506465 472.222628698 558.1 452.699609375 c 1
 442.098291044 389.890891871 464.206991569 240.3000287 323.951618555 214.371938963 c 1
 323.964722558 170.246587312 323.944881989 120.637651777 328.1 65.3 c 0
 330.7365625 33.3 367 24.3 406.2 23 c 1
 405.263574219 -6.9 l 1
 370.559953727 -2.84912313615 329.021588465 -0.644775528729 288.503815871 -0.644775528729 c 0
 246.997026538 -0.644775528729 206.525103352 -2.94823071024 175.909277344 -7.9 c 1
 172.5 22.3 l 1
 214.116134031 23 252.798322812 30.4550290578 255.809277344 71.4 c 0
 258.512301677 111.708128213 259.896593786 162.716262096 260.290977262 214.615204186 c 1
 121.122895491 241.827691295 142.952479669 390.077783678 27.3 451.986035156 c 1
 35.5680461828 471.507759027 49.3484471791 488.86328125 83.33984375 488.86328125 c 1
 198.114546617 488.86328125 154.441971762 285.78715498 260.455015688 241.963177379 c 1
 260.567080486 312.467149851 261.788175121 384.3590599 256.036425781 427.8 c 0
 251.467879877 460.3 226.485860099 458 201.045703125 462.3 c 1
 203.517871094 494.8 l 1
EndSplineSet
EndChar
StartChar: uni0251.smcp
Encoding: 57991 57991 1080
Width: 575
Flags: HW
LayerCount: 2
Fore
SplineSet
407.272070312 97.0204101564 m 1
 408.918193914 201.538258534 411.387304687 260.613015536 411.387304687 363.994628906 c 3
 411.387304687 372.204362461 406.785951551 393.950187585 399.556835938 403.674804688 c 0
 377.673473479 433.124157428 331.376547081 443.247167969 293.083496094 443.247167969 c 3
 188.802852068 443.247167969 107.544824219 338.013635704 107.544824219 221.702246094 c 3
 107.544824219 134.115578288 166.174502841 45.5555664063 277.90234375 45.5555664063 c 3
 357.807114033 45.5555664063 394.588986829 81.8838105015 407.272070312 97.0204101564 c 1
488.449023437 39.7528320313 m 0
 492.805707475 23.6124259712 503.873924417 27.6072396047 505.011621094 27.93203125 c 0
 518.80061344 31.6853145283 545.393633077 39.1918810848 557.212695313 42.9450195312 c 1
 567.860058594 14.929296875 l 1
 513.231313385 -6.89833838076 448.295405365 -32 433.865136719 -32 c 3
 425.583691406 -32 413.432508287 -29.7714325692 412.570410156 -11.9047851562 c 0
 411.387304687 12.9490966022 411.387304687 57.2539328554 411.387304687 61.5763671875 c 1
 366.451302083 33.6795117187 297.005044477 -8.1662109375 215.302929688 -8.1662109375 c 3
 108.541839105 -8.1662109375 27.2 91.2149578538 27.2 184.511816406 c 3
 27.2 350.990281659 175.424639722 491.658398438 351.052441406 491.658398438 c 3
 415.272736898 491.658398438 415.272736898 482.202050781 441.127734375 482.202050781 c 3
 468.337402344 482.202050781 477.801660156 507.025585938 486.083105469 515.3 c 1
 508.560644531 502.297265625 l 1
 506.194726563 495.204785156 501.508621284 475.544318228 497.913574219 464.470703125 c 0
 490.815234375 441.700555098 483.87245471 416.526836516 480.167871094 320.2578125 c 0
 478.984765625 290.445840474 478.984765625 164.043342461 478.984765625 113.959277344 c 3
 478.984765625 89.3580847512 482.542712412 61.6335100654 488.449023437 39.7528320313 c 0
EndSplineSet
EndChar
StartChar: Grave
Encoding: 58019 58019 2426
Width: 222
Flags: HW
AnchorPoint: "Top" 64 699 mark 0
LayerCount: 2
Fore
SplineSet
73.5 754.3 m 1
 61 748 l 1
 28 833 14 862 -13 905 c 1
 -8.18637714286 908.125252525 -1 912 -1 912 c 1
 32 861 52.5 808.3 73.5 754.3 c 1
EndSplineSet
EndChar
StartChar: Uni030F
Encoding: 58034 58034 2531
Width: 300
Flags: HW
AnchorPoint: "Top" 87 699 mark 0
LayerCount: 2
Back
SplineSet
190 755 m 1
 151.908120844 794.743148257 115.534481435 834.467108327 59 875 c 1
 59 875 54.2089843747 868.910714286 51 864 c 1
 101.484454555 824.935494589 125.850723265 803.969088123 179 746 c 1
 190 755 l 1
28.111328125 753.6796875 m 1
 -13.0562640114 794.065575169 -53.2398060034 833.477201947 -106.571289062 868.202148438 c 1
 -106.571289062 868.202148438 -111.70184672 861.826349203 -115 857 c 1
 -65.297416067 821.825380541 -40.7021737859 801.879556802 18 744 c 1
 28.111328125 753.6796875 l 1
EndSplineSet
Fore
SplineSet
190 755 m 1
 179 746 l 1
 121.918918919 808.371862703 97.7027027027 827.778655393 51 864 c 1
 54.2090819047 868.911111111 59 875 59 875 c 1
 116.062604931 833.407652858 152.54536867 795.341544423 190 755 c 1
28.1123046875 753.678710938 m 1
 18 744 l 1
 -41.5024282095 802.865687062 -65.7533214344 822.032799847 -115.4296875 857.797851562 c 1
 -112.048242798 862.352750157 -107 868 -107 868 c 1
 -48.3985551114 830.384941193 -11.390416084 792.093219024 28.1123046875 753.678710938 c 1
EndSplineSet
EndChar
StartChar: mediumrule
Encoding: 58114 58114 531
Width: 1000
Flags: HW
LayerCount: 2
Fore
SplineSet
0 -7 m 1
 0 7 l 1
 1000 7 l 1
 1000 -7 l 1
 0 -7 l 1
EndSplineSet
EndChar
StartChar: j.alt
Encoding: 58118 58118 478
Width: 271
Flags: HW
LayerCount: 2
Back
SplineSet
8 -310 m 1
 36 -289 62 -268 75 -256 c 0
 131.75207653 -203.613467818 155 -178 164 -138 c 0
 170.390730034 -109.596755405 168 -101.17670932 168 80 c 3
 168 183.260115607 168 359.905405405 168 388 c 0
 168 390.941176471 168.123105626 393 164 393 c 3
 153.950124379 393 120 351 47 325 c 1
 43 338 l 1
 96.1328671329 359 139.188811189 390 174 424 c 1
 182 419 l 1
 182 396.108108108 182 364.891891892 182 342 c 0
 182 295 182 247 182 200 c 0
 182 99.8782608696 182 -1.12173913043 182 -103 c 0
 182 -140.085106383 169.094681816 -171.599152071 159 -186 c 0
 138.734557358 -214.910228475 111.060351844 -242.602730401 84 -267 c 0
 66 -283.228571429 42 -302 18 -321 c 1
 8 -310 l 1
EndSplineSet
Fore
SplineSet
8 -310 m 1
 36 -289 62 -268 75 -256 c 0
 131.75207653 -203.613467818 155 -178 164 -138 c 0
 170.390730034 -109.596755405 168 -101.17670932 168 80 c 3
 168 183.260115607 168 359.905405405 168 388 c 0
 168 390.941176471 168.123105626 393 164 393 c 3
 153.950124379 393 120 351 47 325 c 1
 43 338 l 1
 96.1328671329 359 139.188811189 390 174 424 c 1
 182 419 l 1
 182 396.108108108 182 364.891891892 182 342 c 0
 182 295 182 247 182 200 c 0
 182 99.8782608696 182 -1.12173913043 182 -103 c 0
 182 -140.085106383 169.094681816 -171.599152071 159 -186 c 0
 138.734557358 -214.910228475 111.060351844 -242.602730401 84 -267 c 0
 66 -283.228571429 42 -302 18 -321 c 1
 8 -310 l 1
EndSplineSet
Refer: 1112 775 N 1 0 0 1 370 121 2
EndChar
StartChar: f.alt
Encoding: 58119 58119 356
Width: 302
Flags: HW
AnchorPoint: "Top" 252 748 basechar 0
LayerCount: 2
Fore
SplineSet
308 750 m 3
 334.329787234 750 359.063829787 741 383 727 c 1
 387.772727273 723.509090909 378.227272727 715.872727273 376 715 c 1
 350.5 730 328.71875 736 308 736 c 3
 213.241904799 736 148.333914026 649.106419378 130.427119634 557 c 0
 122.734857201 517.433635742 119.120623277 465.506492414 118 394 c 1
 307 394 l 1
 307 380 l 1
 118 380 l 1
 118 313.678756476 118.391048679 246.306653709 118 180 c 0
 117.701136372 129.324347152 117 75.7994273219 117 28 c 0
 117 18.9863440854 122.420061303 15.90108138 128 16 c 0
 152.248296625 16.4298627942 222.888888889 14 250 12 c 1
 250 -2 l 1
 242 -2 172 2 139 2 c 3
 100 2 47 -2 18 -4 c 1
 18 10 l 1
 94 15 l 0
 102.217391304 16.1142857143 102.951930619 20.1906535408 103 28 c 0
 103.5 109.229946524 104 190.459893048 104 273 c 0
 104 306.17 104 346.83 104 380 c 1
 76.4 380 45.2 380 20 380 c 1
 20 394 l 1
 104 394 l 1
 105 453.1375 107.854150274 508.834655999 117 560 c 0
 127.99405979 621.504930428 160 674 195 705 c 0
 224.488151377 731.118076934 264.769276161 750 308 750 c 3
EndSplineSet
EndChar
StartChar: uniFB00.alt
Encoding: 58121 58121 2274
Width: 570
Flags: HW
LayerCount: 2
Fore
SplineSet
372 394 m 1
 373 453.1375 375.42401997 506.91044381 385 560 c 0
 394.792621262 614.290622484 420 658 440.4921875 681.748046875 c 1
 398.541399745 706.16659313 362.417803024 716 328 716 c 0
 224.794389041 716 148.933838045 633.188498438 130.426757812 545 c 0
 122.734719344 508.346496915 119.12059065 460.242210764 118 394 c 1
 294 394 l 3
 320 394 346 394 372 394 c 1
449.4921875 691.923828125 m 1
 454.222896467 696.987770592 459.434065656 701.051284804 464 706 c 0
 493.198101618 731.520897092 533.151848938 750 576 750 c 0
 602.329787234 750 628.618260432 743.370643798 651 727 c 0
 655.772727273 723.509090909 646.061878648 713.787130207 644 715 c 0
 618.5 730 596.71875 736 576 736 c 0
 481.241715796 736 416.33305467 649.106541969 398.426757812 557 c 0
 390.734719344 517.433635742 387.12059065 465.506492414 386 394 c 1
 575 394 l 1
 575 380 l 1
 386 380 l 1
 386 313.678756476 386.391048664 246.306651212 386 180 c 0
 385.701136372 129.324347152 385 75.7994273219 385 28 c 0
 385 18.9863440854 390.420061303 15.90108138 396 16 c 0
 420.248296625 16.4298627942 490.888888889 14 518 12 c 1
 518 -2 l 1
 510 -2 440 2 407 2 c 0
 368 2 315 -2 286 -4 c 1
 286 10 l 1
 362 15 l 2
 370.254969961 15.543090129 370.951930619 20.1906535408 371 28 c 0
 371.5 109.229946524 372 190.459893048 372 273 c 0
 372 306.17 372 346.83 372 380 c 1
 346 380 320 380 294 380 c 0
 118 380 l 1
 118 313.678756476 118.391048679 246.306653709 118 180 c 0
 117.701136372 129.324347152 117 75.7994273219 117 28 c 0
 117 18.9863440854 122.420061303 15.90108138 128 16 c 0
 152.248296625 16.4298627942 222.888888889 14 250 12 c 1
 250 -2 l 1
 242 -2 172 2 139 2 c 0
 100 2 47 -2 18 -4 c 1
 18 10 l 1
 94 15 l 2
 102.254969961 15.543090129 102.951930619 20.1906535408 103 28 c 0
 103.5 109.229946524 104 190.459893048 104 273 c 0
 104 306.17 104 346.83 104 380 c 1
 76.4 380 45.2 380 20 380 c 1
 20 394 l 1
 104 394 l 1
 105 448.8625 107.01292654 498.811360001 117 548 c 0
 130.909428443 616.507142857 167.36290384 657.961809781 204 687 c 0
 235.997817173 712.361144825 280.56097561 730 328 730 c 0
 370.628957766 730 410.706366694 715.132678144 449.4921875 691.923828125 c 1
EndSplineSet
EndChar
StartChar: four.tabulartext
Encoding: 58372 58372 381
Width: 463
Flags: HW
LayerCount: 2
Fore
SplineSet
300 20 m 1
 300 103.5 301.81640625 294.555664062 302 351 c 1
 302 351 223 245 25 14 c 1
 105.213867188 19.6474609375 201.352539062 20.22265625 300 20 c 1
343 413.5 m 1
 336.9296875 397.120117188 316.151367188 377.145507812 316 360 c 0
 315 246.5 314.509765625 149.700195312 314 21 c 1
 445 19.5 413 -1 455 97.5 c 1
 455 97.5 462.3203125 93.83984375 467 91.5 c 9
 467 91.5 443.549804688 34.974609375 426 -5 c 1
 406.038085938 8.591796875 341.772460938 7.060546875 314 7 c 1
 313.793945312 -175.654296875 314.56640625 -173.471679688 319 -188.5 c 1
 284 -211 268 -225 254 -250.5 c 9
 254 -250.5 246.509765625 -247.349609375 243 -241.5 c 1
 303 -145 300 -267 300 6 c 1
 116 6 30 4 2 -4 c 9
 2 -4 0.0703125 -1.2900390625 -5 3 c 1
 10 19 310.8671875 367 332 421.5 c 9
 343 413.5 l 1
EndSplineSet
Substitution2: "pnum-1" four
Substitution2: "lnum-1" four.tabularlining
Substitution2: "numr-1" four.numerator
Substitution2: "dnom-1" four.denom
EndChar
StartChar: three.tabularlining
Encoding: 58381 58381 788
Width: 463
Flags: HW
LayerCount: 2
Fore
SplineSet
83 1.2001953125 m 1
 230.587171766 33.2746633977 302 109.184237866 302 202.200195312 c 3
 302 282.424414397 229.194472016 319.725630487 181 333 c 1
 174.565429688 333 129.521484375 313.219726562 107 309 c 1
 101 325 l 1
 172.734208777 350.702699601 276 403.449327482 276 515.200195312 c 3
 276 573.200195312 217.77734375 603.200195312 188 603.200195312 c 3
 146.506300403 603.200195312 125.253150202 585.783528646 104 570.200195312 c 1
 94 581.200195312 l 1
 118.83984375 615.200195312 193.360351562 639.200195312 229 639.200195312 c 3
 297.732421875 639.200195312 342 585.200195312 342 532.200195312 c 3
 342 478.558326974 306.134062866 424.49138305 239 368.799804688 c 1
 304.620679688 347.085919684 366 302.677681026 366 227 c 3
 366 70.5539874907 135.880358665 -6.40033112287 85 -13.7998046875 c 1
 83 1.2001953125 l 1
EndSplineSet
Substitution2: "pnum-1" three.proportionallining
Substitution2: "onum-1" three.tabulartext
Substitution2: "numr-1" three.numerator
Substitution2: "dnom-1" three.denom
EndChar
StartChar: five.tabularlining
Encoding: 58383 58383 368
Width: 463
Flags: HW
LayerCount: 2
Fore
SplineSet
141 635.5 m 1
 229.919876872 637.450195312 347.722362926 637.068326077 369 640.5 c 0
 395.412109375 644.759765625 409.110351562 670.610351562 421 690.5 c 1
 421 690.5 431.465169271 683.837053571 434 682.5 c 1
 407.090192522 639.599880642 382.254111383 572.166814253 365 572.5 c 0
 320.792651491 573.372070312 244.807562659 569.5 155 569.5 c 1
 155 569.5 141 503.039403376 141 450.5 c 1
 232.807852909 456.807692307 358 410.388914571 358 286.5 c 3
 358 121.077039107 181.318359375 -5.6679316888 59 -16 c 1
 59 -16 59.33984375 -4.55920410156 57 -2 c 1
 168.483398438 10.8104265403 295 113.455179946 295 266 c 3
 295 325.541763798 247.772460938 403.096774194 105 391 c 1
 118.6796875 447.695652174 135.7578125 546.06375558 141 635.5 c 1
EndSplineSet
Substitution2: "pnum-1" five.proportionallining
Substitution2: "onum-1" five.tabulartext
Substitution2: "numr-1" five.numerator
Substitution2: "dnom-1" five.denom
EndChar
StartChar: uniFB01
Encoding: 64257 64257 2276
Width: 549
Flags: HW
LayerCount: 2
Fore
SplineSet
418 387 m 0
 415.413934924 387 419.618584484 380 118 380 c 1
 118 313.678756476 118.391048679 246.306653709 118 180 c 0
 117.701136372 129.324347152 117 75.7994273219 117 28 c 0
 117 18.9863440854 122.420061303 15.90108138 128 16 c 0
 152.248296625 16.4298627942 222.888888889 14 250 12 c 1
 250 -2 l 1
 242 -2 172 2 139 2 c 0
 100 2 47 -2 18 -4 c 1
 18 10 l 1
 94 15 l 2
 102.254969961 15.543090129 102.951930619 20.1906535408 103 28 c 0
 103.5 109.229946524 104 190.459893048 104 273 c 0
 104 306.17 104 346.83 104 380 c 1
 76.4 380 45.2 380 20 380 c 1
 20 394 l 1
 104 394 l 1
 105 453.1375 106.761627643 507.034198756 117 560 c 0
 130.909428443 631.957142857 166 676 204 706 c 0
 236.326469649 731.520897092 280.56097561 750 328 750 c 0
 380.308510638 750 428.604424994 725.397906289 477 690 c 0
 481.772727273 686.509090909 471.88804682 676.531097042 470 678 c 0
 416.75 719.428571429 371.265625 736 328 736 c 0
 224.794578044 736 148.396921819 649.430509893 130.427119634 557 c 0
 122.734857201 517.433635742 119.120623277 465.506492414 118 394 c 1
 204 394 l 3
 343.000000001 394 419.000000001 395 426 406 c 1
 436 401 l 1
 435.75 386.125 435 369.249750972 435 352 c 0
 435 305.246753246 435 254.15601173 435 208 c 0
 435 144.962962963 435.020950873 91.957867693 435 23 c 0
 434.997325382 14.1967415378 436.941176471 15 446 15 c 0
 466 15 506 15 526 15 c 1
 527 1 l 1
 520 1 500 1 493 1 c 0
 431 1 358 -2 315 -6 c 1
 315 8 l 1
 412 14 l 2
 418.604032209 14.4084968376 421 15.2733837751 421 23 c 0
 421 80.5673376131 421 128.78807947 421 186 c 0
 421 250.597712505 421.146286866 313.673612143 421 378 c 0
 420.989753727 382.505570109 420.25 387 418 387 c 0
EndSplineSet
LCarets2: 1 298
Ligature2: "liga-1" f i
EndChar
StartChar: NameMe.question
Encoding: 65536 -1 2466
Width: 333
Flags: HW
LayerCount: 2
Fore
SplineSet
51 389 m 1
 53 402 54 413 54 423 c 3
 54 466 39 483 39 491 c 3
 39 496 45 499 65 502 c 1
 86 470 93 470 123 470 c 3
 198 470 273 418 273 340 c 3
 273 220 195 214 185 210 c 0
 158 200 144 184 141 155 c 9
 141 155 128 154 123 154 c 1
 115 217 109 267 145 283 c 0
 164 290 246 274 246 331 c 3
 246 373 168 396 51 389 c 1
EndSplineSet
Refer: 656 46 N 0.929057 0 0 0.987278 39 -2 2
EndChar
